<?xml version="1.0" encoding="utf-8"?>
<!-- Generator: Adobe Illustrator 16.0.0, SVG Export Plug-In . SVG Version: 6.00 Build 0)  -->
<!DOCTYPE svg PUBLIC "-//W3C//DTD SVG 1.1//EN" "http://www.w3.org/Graphics/SVG/1.1/DTD/svg11.dtd">
<svg version="1.1" id="all-logo" xmlns="http://www.w3.org/2000/svg" xmlns:xlink="http://www.w3.org/1999/xlink" x="0px" y="0px"
	 width="100%" height="100%" viewBox="550 0 1344 900" style="enable-background:new 0 0 1400 309.375;"
	 xml:space="preserve">
<defs>
	<style>
		.st0{
			fill:#fff;
			stroke-miterlimit:10;
		}
		.st1{
			fill-rule:evenodd;
			clip-rule:evenodd;
			fill:none;
			stroke:#ffffff;
			stroke-miterlimit:10;
		}





		<!-- lines-s Animation-->
		#lines-s{
			stroke-dasharray:400;
			stroke-dashoffset:0;

			        animation: lines-s 4s linear forwards;
			-webkit-animation: lines-s 4s linear forwards;
			     -o-animation: lines-s 4s linear forwards;
			   -moz-animation: lines-s 4s linear forwards;
			   animation-duration:3s !important;-webkit-animation-duration:3s !important;-moz-animation-duration:3s !important;-o-animation-duration:3s !important;
		}
		@-webkit-keyframes lines-s {
		  from {
		    stroke-dashoffset: 400;
		  }

		  to {
		    stroke-dashoffset: 0;
		    opacity:0;
		  }
		}




		<!-- lines-b Animation-->
		#lines-b{
			stroke-dasharray:1200;
			stroke-dashoffset:0;

			        animation: lines-b 4s linear forwards;
			-webkit-animation: lines-b 4s linear forwards;
			     -o-animation: lines-b 4s linear forwards;
			   -moz-animation: lines-b 4s linear forwards;
			   animation-duration:3s !important;-webkit-animation-duration:3s !important;-moz-animation-duration:3s !important;-o-animation-duration:3s !important;
		}
		@-webkit-keyframes lines-b {
		  from {
		    stroke-dashoffset: 1200;
		  }

		  to {
		    stroke-dashoffset: 0;
		    opacity:0;
		  }
		}

		<!-- color animation-->
		#color{
			opacity:0;
			stroke-dasharray:1200;
			stroke-dashoffset:0;
			fill:#fff;

			        animation: dash-color 1.4s linear forwards;
			-webkit-animation: dash-color 1.4s linear forwards;
			     -o-animation: dash-color 1.4s linear forwards;
			   -moz-animation: dash-color 1.4s linear forwards;
			animation-delay: 2s;-webkit-animation-delay: 2s;-o-animation-delay: 2s;-moz-animation-delay: 2s;
		}
		@-webkit-keyframes dash-color {
		  from {
		    opacity:0;
		  }

		  to {
			fill:#fff;
		    opacity:1;
		  }
		}

		<!-- global animation-->
		#lines-b, #lines-s{
	        animation-duration: 1s;-webkit-animation-duration: 1s;-o-animation-duration: 1s;-moz-animation-duration: 1s;
	        stroke-width:2;
	        fill:none;
	        stroke: #ffffff;
		}

		#lines-b .st0, #lines-s .st0{
	        fill:none;
	        stroke: #9ffffff;
		}

		<!-- hover -->
		#all-logo:hover #color{
		}


		#color-s{
			opacity:0.6;
		}



		


	</style>
</defs>
<g id="color">
	<g id="color-b">
		<path class="st0" d="M770,62.4v85.1c0,9.5-3,16.8-9,22c-6,5.2-15,7.8-27,7.8c-12,0-21-2.6-27.1-7.8c-6.1-5.2-9.1-12.5-9.1-22V62.4
			c0-9.5,3-16.8,9-22c6-5.2,15-7.8,27-7.8c12,0,21,2.6,27.1,7.8C767,45.5,770,52.9,770,62.4z M755.1,147.5V62.4
			c0-11.3-7.1-17-21.3-17c-14.2,0-21.3,5.7-21.3,17v85.1c0,11.3,7.1,17,21.3,17C748.1,164.5,755.1,158.8,755.1,147.5z"/>
		<path class="st0" d="M824.3,174.1h-14.9V35.8h22.3L856,127l24.5-91.3h22.3v138.3h-14.9V59.6L863,152.8h-13.8l-24.9-93.2V174.1z"/>
		<path class="st0" d="M963.8,35.8h22.3l31.3,138.3h-14.9l-7.2-31.9h-40.6l-7.2,31.9h-14.9L963.8,35.8z M974.9,52.4l-17.4,77h34.9
			L974.9,52.4z"/>
		<path class="st0" d="M1062.1,174.1h-14.9V35.8h32.1c11.1,0,19.5,2.6,25.2,7.9c5.7,5.2,8.6,12.5,8.6,21.9v29.8
			c0,14.5-6.2,23.7-18.7,27.7l26.2,51h-16.4l-24.9-48.9h-17.2V174.1z M1098.2,95.4V65.6c0-5.4-1.6-9.6-4.9-12.5
			c-3.3-3-7.9-4.5-14-4.5h-17.2v63.8h17.2C1091.9,112.4,1098.2,106.7,1098.2,95.4z"/>
		<path class="st0" d="M1214.2,174.1h-14.9V35.8h14.9v61.7h41.9V35.8h14.9v138.3h-14.9v-63.8h-41.9V174.1z"/>
		<path class="st0" d="M1332,35.8h22.3l31.3,138.3h-14.9l-7.2-31.9h-40.6l-7.2,31.9h-14.9L1332,35.8z M1343.1,52.4l-17.4,77h34.9
			L1343.1,52.4z"/>
		<path class="st0" d="M1415.4,35.8h32.1c11.1,0,19.5,2.6,25.2,7.9c5.7,5.2,8.6,12.5,8.6,21.9v12.8c0,12.1-5,19.8-15.1,23.2
			c11.5,3.1,17.2,11,17.2,23.6v19.1c0,9.5-2.8,16.8-8.5,22c-5.7,5.2-14.1,7.8-25.3,7.8h-34.2V35.8z M1466.4,78.3V65.6
			c0-4.5-1.7-8.5-5-11.9c-3.3-3.4-8-5.1-13.9-5.1h-17.2v47.9h17.2c6,0,10.6-1.8,13.9-5.5C1464.8,87.2,1466.4,83,1466.4,78.3z
			 M1468.6,144.3v-19.1c0-4.5-1.7-8.7-5.1-12.4c-3.4-3.8-8-5.6-13.8-5.6h-19.4v54.2h19.4c6,0,10.6-1.7,13.9-5
			C1466.9,153,1468.6,149,1468.6,144.3z"/>
		<path class="st0" d="M1541.3,35.8h22.3l31.3,138.3H1580l-7.2-31.9h-40.6l-7.2,31.9H1510L1541.3,35.8z M1552.4,52.4l-17.4,77h34.9
			L1552.4,52.4z"/>
		<path class="st0" d="M1692.3,147.5c0,19.9-12,29.8-35.9,29.8c-24,0-35.9-9.9-35.9-29.8v-18.1h14.9v18.9c0,5.1,1.8,9.1,5.3,11.9
			c3.5,2.8,8.8,4.3,15.7,4.3c6.9,0,12.2-1.4,15.7-4.3c3.5-2.8,5.3-6.7,5.3-11.6s-0.5-8.8-1.6-11.7c-1.1-2.9-3.2-6-6.5-9.3
			l-37.4-36.6c-4.4-4.4-7.4-8.7-9-12.9c-1.6-4.2-2.4-9.5-2.4-15.8c0-9.5,2.9-16.8,8.8-22c5.9-5.2,14.8-7.8,26.7-7.8
			c22.8,0,34.2,9.9,34.2,29.8v18.1h-14.9V61.5c0-5.1-1.7-9.1-5-11.9c-3.3-2.8-8.3-4.3-15-4.3c-6.7,0-11.7,1.4-15,4.3
			c-3.3,2.8-5,6.7-5,11.7c0,5,0.5,8.9,1.5,11.7c1,2.8,3.2,5.8,6.6,8.9l38.1,36.6c4.1,4.5,6.9,8.9,8.5,13.1
			C1691.5,135.8,1692.3,141.1,1692.3,147.5z"/>
		<path class="st0" d="M1745.5,174.1h-14.9V35.8h14.9v61.7h41.9V35.8h14.9v138.3h-14.9v-63.8h-41.9V174.1z"/>
	</g>
	<g id="color-s" class="st1">
		<g>
			<path class="st0" d="M878.9,218.8h0.6h0.6h0.6h0.6h0.6h0.6h0.6h0.6h0.6h0.6h0.6h0.6h0.6h0.6h0.6h0.6h0.6h0.6h0.6h0.6h0.6h0.6h0.6
				h0.6h0.6h0.6h0.6h0.6h0.6h0.6h0.6h0.6h0.6h0.6h0.6h0.6h0.6h0.6h0.6h0.6h0.6h0.6h0.6h0.6h0.6h0.6h0.6h0.6h0.6h0.6h0.6h0.6h0.6h0.6
				h0.6v0.6v0.6v0.6v0.6v0.6v0.6v0.6v0.6v0.6v0.6v0.6v0.6v0.6v0.6h-0.6h-0.6H911h-0.6h-0.6h-0.6h-2.6H906h-0.6h-0.5h-0.6h-0.6H903
				h-0.6h-0.6h-0.3h-0.6h-0.6h-0.6H899h-0.6h-0.6h-0.6h-0.6h-0.2h-0.6H895h-0.6h-0.6h-0.5h-0.6h-0.6h-0.6h-0.3h-0.6h-0.6h-0.6h-0.6
				H888h-0.6v0.6v0.6v0.6v0.6v0.6v0.6v0.6v0.6v0.6v0.6v0.6v0.6v0.6v0.6v0.6v0.6h0.6h0.6h0.6h0.6h0.6h0.6h0.6h0.6h0.6h0.6h0.6h0.6
				h0.6h0.6h0.6h0.6h0.6h0.6h0.6h0.6h0.6h0.6h0.6h0.6h0.6h0.6h0.6h0.6h0.6h0.6h0.6h0.6h0.6h0.6h0.6v0.6v0.6v0.6v0.6v0.6v0.6v0.6v0.6
				v0.6v0.6v0.6v0.6v0.6v0.6h-0.6h-0.6h-0.6h-0.6H906h-1.4h-0.6h-0.6h-0.6h-0.6h-0.6h-0.6h-0.4h-0.6h-0.6h-0.6h-0.6h-0.6h-0.6h-0.6
				h-0.6h-0.2h-0.6H894h-0.6h-0.6h-0.6h-0.6h-0.4h-0.6h-0.6h-0.6h-0.6H888h-0.6v0.6v0.6v0.5v0.6v0.6v0.6v0.6v0.6v0.5v0.6v0.6v0.6
				v0.6v0.6v0.5v0.6v0.6v0.6v0.6v0.6v0.5v0.6v0.6v0.6v0.6v0.6v0.5v0.6v0.6h-0.6h-0.6h-0.6h-0.6h-0.6h-0.6h-0.6h-0.6h-0.6h0h-0.6
				h-0.6H880h-0.6h-0.6v-0.6v-0.6v-0.6V261v-0.6v-0.6v-0.6v-0.6v-2.9V255v-0.6v-0.6v-0.6v-0.6v-0.6v-0.6v-0.6v-0.2V250v-0.6v-0.6
				v-0.6v-0.6v-0.6v-0.6v-0.6v-0.3v-0.6v-0.6v-0.6v-0.6v-0.6v-0.6V241v-0.6v-0.2v-0.6v-0.6v-0.6v-0.6v-0.6v-0.6v-0.6v-0.6v-0.6V234
				v-0.6v-0.6v-0.6v-0.6v-0.6v0v-0.6v-0.6v-0.5v-0.6v-0.6v-0.6v-0.6V226v-0.6v-0.6v-0.6v-0.6V223v-0.6v-0.6v-0.6v-0.6v0.1V220v-0.6
				v-0.5H878.9z"/>
			<path class="st0" d="M918.7,218.8h0.6h0.6h0.6h0.6h0.6h0.6h0.6h0.6h0.6h0.6h0.6h0.6h0.6h0.6h0.6h0.6h0.6h0.6h0.6h0.6h0.6h0.6h0.6
				h0.6h0.6h0.6h0.6h0.6h0.6h0.6h0.6h0.6h0.6h0.7l0.7,0.1h0.6l0.6,0.1l0.6,0.1l0.6,0.1l0.6,0.1l0.6,0.1l0.6,0.1l0.6,0.2l0.5,0.2
				l0.6,0.2l0.5,0.2l0.4,0.2l0.5,0.2l0.4,0.3l0.4,0.2l0.4,0.3l0.4,0.3l0.4,0.3l0.4,0.3l0.3,0.3l0.4,0.3l0.4,0.4l0.3,0.4l0.3,0.4
				l0.3,0.4l0.3,0.4l0.3,0.4l0.2,0.5l0.2,0.5l0.2,0.4l0.2,0.6l0.2,0.5l0.1,0.6l0.1,0.6l0.1,0.6l0.1,0.6l0.1,0.6l0.1,0.6v0.6v0.1v0.7
				l-0.1,0.6l-0.1,0.6l-0.1,0.6l-0.1,0.6l-0.1,0.6l-0.2,0.6l-0.2,0.5l-0.2,0.6l-0.2,0.5l-0.2,0.5l-0.2,0.4l-0.3,0.4l-0.3,0.4
				l-0.3,0.4l-0.3,0.4l-0.4,0.4l-0.4,0.4l-0.4,0.4l-0.4,0.3l-0.4,0.3l-0.4,0.3l-0.4,0.3l-0.5,0.3l-0.5,0.3l-0.5,0.3l-0.5,0.2
				l-0.6,0.2l-0.6,0.2l0.3,0.4l0.3,0.4l0.3,0.5l0.3,0.4l0.3,0.4l0.3,0.4l0.3,0.5l0.3,0.4l0.3,0.4l0.3,0.4l0.3,0.4l0.3,0.5l0.3,0.4
				l0.3,0.4l0.3,0.4l0.3,0.4l0.3,0.5l0.3,0.4l0.3,0.4l0.3,0.4l0.3,0.5l0.3,0.4l0.3,0.4l0.3,0.4l0.3,0.4l0.3,0.5l0.3,0.4l0.3,0.4
				l0.3,0.4l0.3,0.5l0.3,0.4l0.3,0.4H955h-0.6h-0.6h-0.6H952h-0.6h-0.6h-0.6h-0.6h-0.6h-0.6h-0.6H947h-0.2h-0.6h-0.6H945h-0.6
				l-0.3-0.4l-0.3-0.4l-0.3-0.5l-0.3-0.4l-0.3-0.4l-0.3-0.4l-0.3-0.4l-0.3-0.4l-0.3-0.5l-0.3-0.4l-0.3-0.4l-0.3-0.4l-0.3-0.4
				l-0.3-0.4l-0.3-0.5l-0.3-0.4l-0.3-0.4l-0.3-0.4l-0.3-0.4l-0.3-0.4l-0.3-0.5l-0.3-0.4l-0.3-0.4l-0.3-0.4l-0.3-0.4l-0.3-0.4
				l-0.3-0.5l-0.3-0.4l-0.3-0.4h-0.6h-0.6h-0.7h-0.6h-0.6h-0.6h-0.6h-0.6h-0.6h-0.4h-0.6H928h-0.6v0.6v0.6v0.6v0.5v0.6v0.6v0.6v0.6
				v0.6v0.6v0.6v0.5v0.6v0.6v0.6v0.6v0.6v0.6v0.6v0.5v0.6v0.6v0.6v0.6h-0.6h-0.6h-0.6h-0.4h-0.6h-0.6h-0.6h-0.6h-0.6h-0.6H921h-0.6
				h-0.6h-0.6h-0.6v-0.6v-0.6v-0.6v-0.6v-0.6v-0.6V257v-0.6v-0.7V255v-0.6v-0.6v-0.6v-0.6v-0.6v-0.6v-0.6v-0.2V250v-0.6v-0.6v-0.6
				v-0.6v-0.6v-0.6v-0.6v-0.3v-0.6v-0.6v-0.6v-0.6v-0.6v-0.6V241v-0.6v-0.2v-0.6v-0.6v-0.6v-0.6v-0.6v-0.6v-0.6v-0.6v-0.6V234v-0.6
				v-0.6v-0.6v-0.6v-0.6v0v-0.6v-0.6v-0.5v-0.6v-0.6v-0.6v-0.6V226v-0.6v-0.6v-0.6v-0.6V223v-0.6v-0.6v-0.6v-0.6v0.1V220v-0.6v-0.5
				H918.7z M937.2,239.2h0.7l0.6-0.1l0.6-0.1l0.6-0.1l0.6-0.1l0.5-0.2l0.4-0.2l0.4-0.3l0.4-0.3l0.4-0.3l0.4-0.3l0.3-0.4l0.3-0.4
				l0.3-0.4l0.2-0.5l0.2-0.5l0.1-0.6l0.1-0.6v-0.6V233v-0.6l-0.1-0.6l-0.1-0.6l-0.2-0.6l-0.2-0.5l-0.3-0.4l-0.3-0.4l-0.4-0.4
				l-0.4-0.3l-0.4-0.3l-0.4-0.3l-0.4-0.2l-0.5-0.2l-0.5-0.2l-0.6-0.2l-0.6-0.1l-0.6-0.1l-0.6-0.1H937h-0.6h-0.5h-0.6h-0.6H934h-0.5
				h-0.6h-0.6h-0.5h-0.4h-0.6h-0.4h-0.6h-0.6h-0.6h-0.5h-0.6v0.6v0.6v0.5v0.6v0.6v0.6v0.6v0.6v0.5v0.6v0.6v0.6v0.6v0.5v0.6v0.6v0.6
				v0.6v0.6v0.5v0.6v0.6h0.6h0.6h0.6h0.6h0.5h0.6h0.6h0.6h0.6h0.6h0.6h0.6h0.5h0.6h0.6h0.6h0.2V239.2z"/>
			<path class="st0" d="M982.8,261.5h-0.6h-0.6l-0.6-0.1l-0.6-0.1l-0.6-0.1l-0.6-0.1l-0.6-0.1l-0.6-0.1l-0.5-0.1l-0.6-0.2l-0.5-0.1
				l-0.5-0.2l-0.6-0.1l-0.5-0.2l-0.5-0.2l-0.4-0.2l-0.6-0.2l-0.5-0.2l-0.5-0.2l-0.5-0.3l-0.4-0.3l-0.5-0.2l-0.4-0.3l-0.4-0.3
				l-0.4-0.3l-0.4-0.3l-0.4-0.2l-0.4-0.3l-0.4-0.3l-0.4-0.4l-0.3-0.4l-0.4-0.4l-0.4-0.4l-0.4-0.4l-0.3-0.4l-0.3-0.4l-0.3-0.4
				l-0.3-0.4l-0.3-0.5l-0.3-0.5l-0.3-0.5l-0.3-0.5l-0.3-0.5l-0.2-0.5l-0.4-0.8l-0.2-0.5l-0.2-0.5l-0.2-0.6l-0.2-0.5l-0.1-0.5
				l-0.2-0.6l-0.1-0.6l-0.1-0.5l-0.1-0.6l-0.1-0.6l-0.1-0.6l-0.1-0.6v-0.3l-0.1-0.6V240v-0.1v-0.6l0.1-0.6v-0.5l0.1-0.6l0.1-0.6
				l0.1-0.6l0.1-0.6l0.1-0.6l0.1-0.5l0.2-0.6l0.2-0.5l0.2-0.6l0.2-0.5l0.2-0.5l0.2-0.6l0.2-0.5l0.2-0.4l0.3-0.5l0.2-0.5l0.3-0.4
				l0.3-0.5l0.3-0.4l0.3-0.4l0.3-0.4l0.3-0.4l0.3-0.4l0.3-0.4l0.3-0.4l0.4-0.4l0.4-0.4l0.3-0.4l0.4-0.3l0.4-0.4l0.4-0.3l0.4-0.3
				l0.4-0.3l0.4-0.3l0.4-0.3l0.4-0.3l0.5-0.3l0.5-0.3l0.4-0.2l0.5-0.3l0.6-0.2l0.5-0.2l0.5-0.2l0.5-0.2l0.5-0.2l0.5-0.2l0.6-0.2
				l0.5-0.1l0.6-0.2l0.5-0.1l0.6-0.1l0.6-0.1l0.6-0.1l0.6-0.1l0.6-0.1l0.6-0.1h0.6h0.6h0.6h0.6l0.6,0.1l0.6,0.1l0.6,0.1l0.6,0.1
				l0.6,0.1l0.6,0.1l0.5,0.1l0.6,0.2l0.5,0.1l0.5,0.2l0.6,0.1l0.5,0.2l0.5,0.2l0.5,0.2l0.5,0.3l0.5,0.2l0.5,0.2l0.5,0.3l0.4,0.2
				l0.5,0.3l0.4,0.3l0.4,0.3l0.4,0.3l0.4,0.3l0.4,0.3l0.4,0.3l0.4,0.3l0.4,0.4l0.4,0.3l0.4,0.4l0.4,0.4l0.4,0.4l0.3,0.4l0.3,0.4
				l0.3,0.4l0.3,0.4l0.3,0.5l0.3,0.5l0.3,0.5l0.3,0.5l0.3,0.5l0.2,0.5l0.3,0.6l0.2,0.5l0.2,0.5l0.2,0.6l0.2,0.5l0.1,0.5l0.2,0.6
				l0.1,0.6l0.1,0.5l0.1,0.6l0.1,0.6l0.1,0.6l0.1,0.6v0.6l0.1,0.6v0.6v0.1v0.6l-0.1,0.6v0.6l-0.1,0.6l-0.1,0.6l-0.1,0.6l-0.1,0.6
				l-0.1,0.6l-0.1,0.5l-0.2,0.6l-0.2,0.5l-0.2,0.6l-0.2,0.5l-0.2,0.5l-0.2,0.5l-0.2,0.6l-0.2,0.4l-0.2,0.5l-0.3,0.5l-0.3,0.4
				l-0.3,0.4l-0.3,0.5l-0.3,0.4l-0.3,0.4l-0.3,0.4l-0.3,0.4l-0.3,0.4l-0.3,0.4l-0.4,0.4l-0.3,0.4l-0.4,0.4l-0.4,0.3l-0.4,0.4
				l-0.4,0.3l-0.4,0.3l-0.4,0.3l-0.4,0.3l-0.4,0.3l-0.4,0.3l-0.5,0.3l-0.5,0.3l-0.4,0.2l-0.5,0.3l-0.6,0.2l-0.5,0.2l-0.5,0.2
				l-0.5,0.2l-0.5,0.2l-0.5,0.2l-0.6,0.2l-0.5,0.1l-0.6,0.2l-0.5,0.1l-0.6,0.1l-0.6,0.1l-0.6,0.1l-0.6,0.1l-0.6,0.1l-0.6,0.1h-0.6
				h-0.6V261.5z M982.9,253.4h0.6l0.6-0.1l0.6-0.1l0.6-0.1l0.6-0.1l0.6-0.1l0.6-0.2l0.5-0.2l0.6-0.2l0.5-0.2l0.4-0.2l0.5-0.3
				l0.4-0.3l0.4-0.3l0.4-0.3l0.4-0.3l0.4-0.4l0.4-0.4l0.3-0.4l0.3-0.4l0.3-0.4l0.3-0.4l0.3-0.4l0.3-0.4l0.3-0.5l0.2-0.5l0.2-0.6
				l0.2-0.5l0.2-0.6l0.2-0.5l0.1-0.6l0.1-0.6l0.1-0.6l0.1-0.6l0.1-0.6V240v-0.1v-0.6l-0.1-0.6l-0.1-0.6l-0.1-0.6l-0.1-0.6l-0.2-0.6
				l-0.1-0.5l-0.2-0.6l-0.2-0.6l-0.2-0.5l-0.2-0.5l-0.3-0.5l-0.3-0.4l-0.3-0.5l-0.3-0.4l-0.3-0.4l-0.3-0.4l-0.4-0.4l-0.4-0.4
				l-0.4-0.3l-0.4-0.4l-0.4-0.3l-0.4-0.3l-0.4-0.3l-0.5-0.3l-0.4-0.2l-0.5-0.3l-0.6-0.2l-0.5-0.2l-0.6-0.2l-0.6-0.1l-0.6-0.1
				l-0.6-0.1l-0.6-0.1l-0.6-0.1h-0.6h-0.6l-0.6,0.1l-0.6,0.1l-0.6,0.1l-0.6,0.1l-0.6,0.1l-0.5,0.2l-0.6,0.2l-0.5,0.2l-0.5,0.3
				l-0.5,0.2l-0.4,0.3l-0.4,0.3l-0.4,0.3l-0.4,0.3l-0.4,0.3l-0.4,0.4l-0.3,0.3l-0.4,0.4l-0.3,0.4l-0.3,0.4l-0.3,0.4l-0.3,0.4
				l-0.4,0.7l-0.3,0.5L971,234l-0.2,0.5l-0.2,0.6l-0.2,0.6l-0.2,0.5l-0.1,0.6l-0.1,0.6l-0.1,0.6l-0.1,0.6l-0.1,0.6v0.6v0.1v0.6
				l0.1,0.6l0.1,0.6l0.1,0.6l0.1,0.6l0.1,0.6l0.2,0.5l0.2,0.6l0.2,0.5l0.2,0.6l0.3,0.5l0.2,0.5l0.3,0.4l0.3,0.5l0.3,0.4l0.3,0.4
				l0.4,0.4l0.3,0.4l0.4,0.4l0.4,0.3l0.4,0.4l0.4,0.3l0.4,0.3l0.4,0.3l0.5,0.3l0.4,0.2l0.6,0.2l0.5,0.2l0.5,0.2l0.6,0.2l0.6,0.1
				l0.6,0.1l0.6,0.1l0.6,0.1l0.6,0.1h0.6V253.4z"/>
			<path class="st0" d="M1013.9,218.8h0.6h0.6h0.6h0.6h0.6h0.6h0.6h0.6h0.6h0.6h0.6h0.6h0.6h0.6l0.3,0.4l0.3,0.4l0.3,0.4l0.3,0.4
				l0.3,0.4l0.3,0.4l0.3,0.4l0.3,0.4l0.3,0.4l0.4,0.4l0.3,0.4l0.3,0.4l0.3,0.4l0.3,0.4l0.3,0.4l0.3,0.4l0.3,0.4l0.3,0.4l0.3,0.4
				l0.3,0.4l0.3,0.4l0.3,0.4l0.3,0.4l0.3,0.4l0.3,0.4l0.3,0.4l0.3,0.4l0.3,0.4l0.4,0.4l0.3,0.4l0.3,0.4l0.3,0.4l0.3,0.4l0.3,0.4
				l0.3,0.4l0.3,0.4l0.3,0.4l0.3,0.4l0.3,0.4l0.3,0.4l0.3,0.4l0.3,0.4l0.3,0.4l0.3,0.4l0.3,0.4l0.3,0.4l0.3,0.4l0.3,0.4l0.4,0.4
				l0.3,0.4l0.3,0.4l0.3,0.4l0.3,0.4l0.3,0.4l0.3,0.4l0.3,0.4l0.3,0.4l0.3,0.4v-0.6v-0.6v-0.6v-0.6v-0.6V239v-0.6v-0.6v2.4v-0.6
				v-0.6v-0.6v-0.6v-0.6v-0.6v-0.6v-0.6v-0.6V234v-0.6v-0.6v-0.6v-0.6V231v-0.6v-0.6v0.1v-0.6v-0.6V228v-0.6v-0.6v-0.6v-0.6v-0.6
				v-0.6v-0.6v-0.6v-0.6v-0.6v-0.6v-0.6v0V220v-0.6v-0.6h0.6h0.6h0.6h0.6h0.6h0.6h0.6h0.6h0.6h0.6h0.6h0.6h0.6h0.6h0.6v0.6v0.6v0.6
				v0.6v0.6v0.6v0.6v0.6v0.6v0.6v0.6v0.6v0.6v0.6v0.6v0.6v0.6v0.6v0.5v0.6v0.6v0.6v0.6v0.6v0.6v0.6v0.6v0.6v0.6v0.6v0.6v0.6v0.6v0.6
				v0.6v0.6v0.6v0.6v0.6v0.6v0.6v0.6v0.6v0.6v0.6v0.6v0.6v0.6v0.6v0.6v0.6v0.6v0.6v0.6v0.5v0.6v0.6v0.6v0.6v0.6v0.6v0.6v0.6v0.6v0.6
				v0.6v0.6v0.6v0.6v0.6v0.6v0.6v0.6h-0.6h-0.6h-0.6h-0.6h-0.6h-0.6h-0.6h-0.6h-0.6h-0.6h-0.6h-0.6h-0.6l-0.3-0.4l-0.3-0.4l-0.3-0.4
				l-0.3-0.4l-0.3-0.4l-0.3-0.4l-0.3-0.4l-0.3-0.4l-0.3-0.4l-0.3-0.4l-0.3-0.4l-0.3-0.4l-0.3-0.4l-0.3-0.4l-0.3-0.4l-0.4-0.4
				l-0.3-0.4l-0.3-0.4l-0.3-0.4l-0.3-0.4l-0.3-0.4l-0.3-0.4l-0.3-0.4l-0.3-0.4l-0.3-0.4l-0.3-0.4l-0.3-0.4l-0.3-0.4l-0.3-0.4
				l-0.3-0.4l-0.3-0.4l-0.3-0.4l-0.3-0.4l-0.3-0.4l-0.3-0.4l-0.3-0.4l-0.3-0.4l-0.3-0.4l-0.3-0.4l-0.3-0.4l-0.3-0.4l-0.3-0.4
				l-0.3-0.4l-0.3-0.4l-0.3-0.4l-0.4-0.4l-0.3-0.4l-0.3-0.4l-0.3-0.4l-0.3-0.4l-0.3-0.4l-0.3-0.4l-0.3-0.4l-0.3-0.4l-0.3-0.4
				l-0.3-0.4l-0.3-0.4l-0.3-0.4l-0.3-0.4l-0.3-0.4v0.6v0.6v0.6v0.6v0.6v0.6v0.6v0.6v0.6v0.6v0.6v0.6v0.6v0.6v0.6v0.6v0.6v0.6v0.6
				v0.6v0.6v0.6v0.6v0.6v0.6v0.6v0.6v0.6v0.6v0.6v0.6v0.6v0.6v0.6v0.6v0.6v0.6v0.6v0.6v0.6v0.6v0.6v0.6v0.6v0.6v0.6v0.6h-0.6h-0.6
				h-0.6h-0.6h-0.6h-0.6h-0.6h-0.6h-0.6h-0.6h-0.6h-0.6h-0.6h-0.6h-0.6v-0.6v-0.6v-0.6v-0.6v-0.6v-0.6v-0.6v-0.6v-7.4V255v-0.6v-0.6
				v-0.6v-0.6v-0.6v-0.6v-0.6v-0.2V250v-0.6v-0.6v-0.6v-0.6v-0.6v-0.6v-0.6v-0.3v-0.6v-0.6v-0.6v-0.6v-0.6v-0.6V241v-0.6v-0.2v-0.6
				v-0.6v-0.6v-0.6v-0.6v-0.6v-0.6v-0.6v-0.6V234v-0.6v-0.6v-0.6v-0.6v-0.6v0v-0.6v-0.6v-0.5v-0.6v-0.6v-0.6v-0.6V226v-0.6v-0.6
				v-0.6v-0.6V223v-0.6v-0.6v-0.6v-0.6v0.1V220v-0.6v-0.5H1013.9z"/>
			<path class="st0" d="M1071.7,227.1h-0.6h-0.6h-0.6h-0.6h-0.6h-0.6h-0.6h-0.6h-0.6h-0.6h-0.6h-0.6h-0.6h-0.6h-0.6h-0.6h-0.6h-0.6
				h-0.6h-0.6h-0.6h-0.6v-0.6v-0.6v-0.6v-0.5v-0.6v-0.6v-0.6v-0.6v-0.6V221v-0.4V220v-0.6v-0.6h0.6h0.6h0.6h0.6h0.6h0.6h0.6h0.6h0.6
				h0.6h0.6h0.6h0.6h0.6h0.6h0.6h0.6h0.6h0.6h0.6h0.6h0.6h0.6h0.6h0.6h0.6h0.6h0.6h0.6h0.6h0.6h0.6h0.6h0.6h0.6h0.6h0.6h0.6h0.6h0.6
				h0.6h0.6h0.6h0.6h0.6h0.6h0.6h0.6h0.6h0.6h0.6h0.6h0.6h0.6h0.6h0.6h0.6h0.6h0.6h0.6v0.6v0.6v0.6v0.6v0.6v0.6v0.6v0.6v0.6v0.6v0.6
				v0.6v0.6v0.6h-0.6h-0.6h-0.6h-0.6h-0.6h-0.6h-0.6h-0.6h-0.6h-0.6h-0.6h-0.6h-0.6h-0.6h-0.6h-0.6h-0.6h-0.6h-0.6h-0.6h-0.6h-0.6
				v0.6v0.6v0.6v0.6v0.6v0.6v0.6v0.5v0.6v0.6v0.6v0.6v0.6v0.6v0.6v0.6v0.6v0.6v0.6v0.6v0.6v0.6v0.5v0.6v0.6v0.6v0.6v0.6v0.6v0.6v0.6
				v0.6v0.6v0.6v0.6v0.6v0.5v0.6v0.6v0.6v0.6v0.6v0.6v0.6v0.6v0.6v0.6v0.6v0.6v0.6v0.6v0.5v0.6v0.6v0.6v0.6v0.6v0.6v0.6h-0.6h-0.6
				h-0.6h-0.6h-0.6h-0.6h-0.6h-0.6h-0.6h-0.6h-0.6h-0.6h-0.6h-0.6h-0.6v-0.6v-0.6v-0.6V261v-0.6v-0.6v-0.6v-0.5V258v-0.6v-2.8V254
				v-0.6v-0.6v-0.6v-0.6v-0.6v-0.6v-0.6V249v-0.6v-0.6v-0.5v-0.6v-0.6v-0.6v-0.6v-0.6v0.1v-0.6v-0.6v-0.6v-0.6v-0.6v-0.6v-0.4v-0.5
				v-0.5v-0.6v-0.6v-0.6v-0.6v-0.6v-0.6v-0.6v-0.6v-0.6V233v-0.6v-0.6v-0.6v-0.5V230v-0.6v-0.6v0.1v-0.6v-0.6v-0.5H1071.7z"/>
			<path class="st0" d="M1101.1,218.8h0.6h0.6h0.6h0.6h0.6h0.6h0.6h0.6h0.6h0.5h0.6h0.6h0.6h0.6h0.6h0.6h0.6h0.6h0.6h0.6h0.6h0.6
				h0.6h0.6h0.6h0.6h0.6h0.5h0.6h0.6h0.6h0.6h0.6h0.6h0.6h0.6h0.6h0.6h0.6h0.6h0.6h0.6h0.6h0.6h0.6h0.5h0.6h0.6h0.6h0.6h0.6h0.6h0.6
				h0.6h0.6v0.6v0.6v0.5v0.6v0.6v0.6v0.5v0.6v0.6v0.6v0.6v0.5v0.6v0.6h-0.6h-0.6h-0.6h-0.5h-0.6h-0.6h-0.6h-0.6h-0.6h-0.6h-0.6h-0.5
				h-0.6h-0.6h-0.6h-0.6h-0.6h-0.6h-0.6h-0.5h-0.6h-0.6h-0.6h-0.6h-0.6h-0.6h-0.6h-0.5h-0.6h-0.6h-0.6h-0.6h-0.6h-0.6h-0.6h-0.5
				h-0.6h-0.6h-0.6h-0.6v0.6v0.5v0.6v0.6v0.6v0.5v0.6v0.6v0.6v0.5v0.6v0.6v0.6v0.5v0.6v0.6h0.6h0.6h0.6h0.6h0.6h0.6h0.6h0.6h0.5h0.6
				h0.6h0.6h0.6h0.6h0.6h0.6h0.6h0.6h0.6h0.6h0.6h0.6h0.6h0.6h0.6h0.6h0.5h0.6h0.6h0.6h0.6h0.6h0.6h0.6h0.6v0.6v0.6v0.5v0.6v0.6v0.6
				v0.5v0.6v0.6v0.6v0.6v0.5v0.6v0.6h-0.6h-0.6h-0.6h-0.6h-0.6h-0.6h-0.6h-0.6h-0.5h-0.6h-0.6h-0.6h-0.6h-0.6h-0.6h-0.6h-0.6h-0.6
				h-0.6h-0.6h-0.6h-0.6h-0.6h-0.6h-0.6h-0.6h-0.5h-0.6h-0.6h-0.6h-0.6h-0.6h-0.6h-0.6h-0.6v0.6v0.6v0.6v0.6v0.6v0.6v0.6v0.6v0.6
				v0.6v0.6v0.6v0.6v0.6v0.6v0.6h0.6h0.6h0.6h0.6h0.6h0.6h0.6h0.6h0.6h0.6h0.6h0.6h0.6h0.6h0.6h0.6h0.6h0.6h0.6h0.6h0.6h0.6h0.6h0.6
				h0.6h0.6h0.6h0.6h0.6h0.6h0.6h0.6h0.6h0.6h0.6h0.6h0.6h0.6h0.6h0.6v0.6v0.6v0.5v0.6v0.6v0.6v0.5v0.6v0.6v0.6v0.6v0.5v0.6v0.6
				h-0.6h-0.6h-0.6h-0.6h-0.6h-0.6h-0.6h-0.6h-0.6h-0.6h-0.6h-0.6h-0.6h-0.6h-0.6h-0.6h-0.6h-0.6h-0.6h-0.6h-0.6h-0.6h-0.6h-0.6
				h-0.6h-0.6h-0.6h-0.6h-0.6h-0.6h-0.6h-0.6h-0.6h-0.6h-0.6h-0.6h-0.6h-0.6h-0.6h-0.6h-0.6h-0.6h-0.6h-0.6h-0.6h-0.6h-0.6h-0.6
				h-0.6h-0.6h-0.6h-0.6h-0.6h-0.6h-0.6v-0.6V262v-0.6v-0.6v-0.6v-0.6v-0.6v-0.6v-2.7V255v-0.6v-0.6v-0.6v-0.6v-0.6v-0.6v-0.6v-0.2
				V250v-0.6v-0.6v-0.6v-0.6v-0.6v-0.6v-0.6v-0.3v-0.6v-0.6v-0.6v-0.6v-0.6v-0.6V241v-0.6v-0.2v-0.6v-0.6v-0.6v-0.6v-0.6v-0.6v-0.6
				v-0.6v-0.6V234v-0.6v-0.6v-0.6v-0.6v-0.6v0v-0.6v-0.6v-0.5v-0.6v-0.6v-0.6v-0.6V226v-0.6v-0.6v-0.6v-0.6V223v-0.6v-0.6v-0.6v-0.6
				v0.1V220v-0.6v-0.5H1101.1z"/>
			<path class="st0" d="M1141.8,218.8h0.6h0.6h0.6h0.6h0.6h0.6h0.6h0.6h0.6h0.6h0.6h0.6h0.6h0.6l0.3,0.4l0.3,0.4l0.3,0.4l0.3,0.4
				l0.3,0.4l0.3,0.4l0.3,0.4l0.3,0.4l0.3,0.4l0.4,0.4l0.3,0.4l0.3,0.4l0.3,0.4l0.3,0.4l0.3,0.4l0.3,0.4l0.3,0.4l0.3,0.4l0.3,0.4
				l0.3,0.4l0.3,0.4l0.3,0.4l0.3,0.4l0.3,0.4l0.3,0.4l0.3,0.4l0.3,0.4l0.3,0.4l0.4,0.4l0.3,0.4l0.3,0.4l0.3,0.4l0.3,0.4l0.3,0.4
				l0.3,0.4l0.3,0.4l0.3,0.4l0.3,0.4l0.3,0.4l0.3,0.4l0.3,0.4l0.3,0.4l0.3,0.4l0.3,0.4l0.3,0.4l0.3,0.4l0.3,0.4l0.3,0.4l0.4,0.4
				l0.3,0.4l0.3,0.4l0.3,0.4l0.3,0.4l0.3,0.4l0.3,0.4l0.3,0.4l0.3,0.4l0.3,0.4v-0.6v-0.6v-0.6v-0.6v-0.6V239v-0.6v-0.6v2.4v-0.6
				v-0.6v-0.6v-0.6v-0.6v-0.6v-0.6v-0.6v-0.6V234v-0.6v-0.6v-0.6v-0.6V231v-0.6v-0.6v0.1v-0.6v-0.6V228v-0.6v-0.6v-0.6v-0.6v-0.6
				v-0.6v-0.6v-0.6v-0.6v-0.6v-0.6v-0.6v0V220v-0.6v-0.6h0.6h0.6h0.6h0.6h0.6h0.6h0.6h0.6h0.6h0.6h0.6h0.6h0.6h0.6h0.6v0.6v0.6v0.6
				v0.6v0.6v0.6v0.6v0.6v0.6v0.6v0.6v0.6v0.6v0.6v0.6v0.6v0.6v0.6v0.5v0.6v0.6v0.6v0.6v0.6v0.6v0.6v0.6v0.6v0.6v0.6v0.6v0.6v0.6v0.6
				v0.6v0.6v0.6v0.6v0.6v0.6v0.6v0.6v0.6v0.6v0.6v0.6v0.6v0.6v0.6v0.6v0.6v0.6v0.6v0.6v0.5v0.6v0.6v0.6v0.6v0.6v0.6v0.6v0.6v0.6v0.6
				v0.6v0.6v0.6v0.6v0.6v0.6v0.6v0.6h-0.6h-0.6h-0.6h-0.6h-0.6h-0.6h-0.6h-0.6h-0.6h-0.6h-0.6h-0.6h-0.6l-0.3-0.4l-0.3-0.4l-0.3-0.4
				l-0.3-0.4l-0.3-0.4l-0.3-0.4l-0.3-0.4l-0.3-0.4l-0.3-0.4l-0.3-0.4l-0.3-0.4l-0.3-0.4l-0.3-0.4l-0.3-0.4l-0.3-0.4l-0.4-0.4
				l-0.3-0.4l-0.3-0.4l-0.3-0.4l-0.3-0.4l-0.3-0.4l-0.3-0.4l-0.3-0.4l-0.3-0.4l-0.3-0.4l-0.3-0.4l-0.3-0.4l-0.3-0.4l-0.3-0.4
				l-0.3-0.4l-0.3-0.4l-0.3-0.4l-0.3-0.4l-0.3-0.4l-0.3-0.4l-0.3-0.4l-0.3-0.4l-0.3-0.4l-0.3-0.4l-0.3-0.4l-0.3-0.4l-0.3-0.4
				l-0.3-0.4l-0.3-0.4l-0.3-0.4l-0.4-0.4l-0.3-0.4l-0.3-0.4l-0.3-0.4l-0.3-0.4l-0.3-0.4l-0.3-0.4l-0.3-0.4l-0.3-0.4l-0.3-0.4
				l-0.3-0.4l-0.3-0.4l-0.3-0.4l-0.3-0.4l-0.3-0.4v0.6v0.6v0.6v0.6v0.6v0.6v0.6v0.6v0.6v0.6v0.6v0.6v0.6v0.6v0.6v0.6v0.6v0.6v0.6
				v0.6v0.6v0.6v0.6v0.6v0.6v0.6v0.6v0.6v0.6v0.6v0.6v0.6v0.6v0.6v0.6v0.6v0.6v0.6v0.6v0.6v0.6v0.6v0.6v0.6v0.6v0.6v0.6h-0.6h-0.6
				h-0.6h-0.6h-0.6h-0.6h-0.6h-0.6h-0.6h-0.6h-0.6h-0.6h-0.6h-0.6h-0.6v-0.6v-0.6v-0.6v-0.6v-0.6v-0.6v-0.6v-0.6v-7.4V255v-0.6v-0.6
				v-0.6v-0.6v-0.6v-0.6v-0.6v-0.2V250v-0.6v-0.6v-0.6v-0.6v-0.6v-0.6v-0.6v-0.3v-0.6v-0.6v-0.6v-0.6v-0.6v-0.6V241v-0.6v-0.2v-0.6
				v-0.6v-0.6v-0.6v-0.6v-0.6v-0.6v-0.6v-0.6V234v-0.6v-0.6v-0.6v-0.6v-0.6v0v-0.6v-0.6v-0.5v-0.6v-0.6v-0.6v-0.6V226v-0.6v-0.6
				v-0.6v-0.6V223v-0.6v-0.6v-0.6v-0.6v0.1V220v-0.6v-0.5H1141.8z"/>
			<path class="st0" d="M1189.7,218.8h0.6h0.6h0.6h0.6h0.6h0.6h0.6h0.6h0.6h0.6h0.6h0.6h0.6h0.6h0.6h0.6h0.6h0.6h0.6h0.6h0.6h0.6
				h0.6h0.6h0.6h0.6h0.6h0.6h0.6h0.6l0.6,0.1l0.6,0.1l0.6,0.1l0.6,0.1l0.6,0.1l0.6,0.1l0.6,0.1l0.6,0.1l0.5,0.1l0.6,0.1l0.5,0.2
				l0.5,0.2l0.5,0.2l0.5,0.2l0.6,0.3l0.6,0.2l0.6,0.2l0.5,0.3l0.5,0.3l0.5,0.3l0.5,0.3l0.5,0.3l0.4,0.3l0.4,0.3l0.4,0.3l0.4,0.3
				l0.4,0.4l0.4,0.4l0.4,0.4l0.4,0.4l0.4,0.4l0.3,0.4l0.4,0.4l0.3,0.4l0.3,0.4l0.3,0.5l0.3,0.4l0.3,0.5l0.3,0.4l0.3,0.5l0.2,0.6
				l0.3,0.5l0.2,0.5l0.2,0.5l0.2,0.5l0.2,0.5l0.1,0.5l0.2,0.6l0.1,0.5l0.1,0.6l0.1,0.5l0.1,0.6l0.1,0.6l0.1,0.6v0.6l0.1,0.6v0.6v0.1
				v0.6l-0.1,0.6v0.6l-0.1,0.6l-0.1,0.6l-0.1,0.6l-0.1,0.6l-0.1,0.5l-0.1,0.6l-0.2,0.5l-0.1,0.5l-0.2,0.5l-0.2,0.6l-0.2,0.5
				l-0.2,0.4l-0.3,0.6l-0.2,0.5l-0.3,0.5l-0.3,0.5l-0.3,0.5l-0.3,0.4l-0.3,0.5l-0.3,0.4l-0.3,0.4l-0.4,0.4l-0.3,0.4l-0.4,0.4
				l-0.4,0.4l-0.4,0.4l-0.4,0.3l-0.4,0.4l-0.4,0.3l-0.4,0.3l-0.4,0.3l-0.4,0.3l-0.4,0.3l-0.4,0.3l-0.4,0.3l-0.5,0.3l-0.5,0.3
				l-0.4,0.2l-0.5,0.2l-0.6,0.2l-0.5,0.2l-0.5,0.2l-0.5,0.2l-0.5,0.2l-0.5,0.1l-0.6,0.2l-0.5,0.1l-0.6,0.1l-0.6,0.1l-0.6,0.1
				l-0.6,0.1l-0.6,0.1l-0.6,0.1l-0.6,0.1l-0.6,0.1h-0.6h-0.6h-0.6h-0.6h-0.6h-0.6h-0.6h-0.6h-0.6h-0.6h-0.6h-0.6h-0.6h-0.6h-0.6
				h-0.6h-0.6h-0.6h-0.6h-0.6h-0.6h-0.6h-0.6h-0.6h-0.6h-0.6h-0.6h-0.6h-0.6h-0.6v-0.6v-0.6v-0.6v-0.6v-0.6v-0.6V257v-0.6v-0.7V255
				v-0.6v-0.6v-0.6v-0.6v-0.6v-0.6v-0.6v-0.2V250v-0.6v-0.6v-0.6v-0.6v-0.6v-0.6v-0.6v-0.3v-0.6v-0.6v-0.6v-0.6v-0.6v-0.6V241v-0.6
				v-0.2v-0.6v-0.6v-0.6v-0.6v-0.6v-0.6v-0.6v-0.6v-0.6V234v-0.6v-0.6v-0.6v-0.6v-0.6v0v-0.6v-0.6v-0.5v-0.6v-0.6v-0.6v-0.6V226
				v-0.6v-0.6v-0.6v-0.6V223v-0.6v-0.6v-0.6v-0.6v0.1V220v-0.6v-0.5H1189.7z M1198.4,226.9v0.6v0.6v0.6v0.6v0.6v0.6v0.6v0.6v0.6v0.6
				v0.6v0.6v0.6v0.6v0.6v0.6v0.6v0.6v0.6v0.6v0.6v0.6v0.6v0.6v0.6v0.6v0.6v0.6v0.6v0.6v0.6v0.6v0.6v0.6v0.6v0.6v0.6v0.6v0.6v0.6v0.6
				v0.6v0.6v0.6v0.6h0.6h0.6h0.6h0.5h0.6h0.6h0.6h0.6h0.6h0.5h0.6h0.6h0.6h0.6l0.6-0.1l0.6-0.1l0.6-0.1l0.6-0.1l0.6-0.1l0.6-0.2
				l0.5-0.2l0.6-0.2l0.6-0.2l0.6-0.3l0.5-0.3l0.5-0.3l0.5-0.3l0.4-0.3l0.4-0.4l0.4-0.4l0.4-0.4l0.3-0.4l0.4-0.4l0.3-0.5l0.3-0.5
				l0.3-0.5l0.3-0.6l0.3-0.6l0.2-0.5l0.2-0.6l0.2-0.5l0.1-0.6l0.1-0.6l0.1-0.6l0.1-0.6l0.1-0.6v-0.6v-0.1v-0.6l-0.1-0.6l-0.1-0.6
				l-0.1-0.6l-0.1-0.6l-0.1-0.6l-0.2-0.6l-0.2-0.5l-0.2-0.6l-0.2-0.5l-0.2-0.4l-0.3-0.5l-0.3-0.4l-0.3-0.4l-0.3-0.4l-0.3-0.4
				l-0.3-0.4l-0.3-0.4l-0.4-0.4l-0.4-0.3l-0.4-0.3l-0.4-0.3l-0.4-0.3l-0.4-0.3l-0.5-0.3l-0.4-0.2l-0.5-0.2l-0.6-0.2l-0.5-0.2
				l-0.6-0.2l-0.6-0.1l-0.6-0.1l-0.6-0.1l-0.6-0.1l-0.6-0.1h-0.6h-0.6h-0.6h-0.6h-0.5h-0.6h-0.6h-0.6h-0.6h-0.6h-0.5h-0.6h-0.6h-0.8
				V226.9z"/>
			<path class="st0" d="M1255.5,218.8h0.6h0.6h0.6h0.6h0.6h0.6h0.6h0.6h0.6h0.6h0.6h0.6h0.6h0.6h0.6h0.6h0.6h0.6h0.6h0.6h0.6h0.6
				h0.6h0.6h0.6h0.6h0.6h0.6h0.6h0.6l0.6,0.1l0.6,0.1l0.6,0.1l0.6,0.1l0.6,0.1l0.6,0.1l0.6,0.1l0.6,0.1l0.5,0.1l0.6,0.1l0.5,0.2
				l0.5,0.2l0.5,0.2l0.5,0.2l0.6,0.3l0.6,0.2l0.6,0.2l0.5,0.3l0.5,0.3l0.5,0.3l0.5,0.3l0.5,0.3l0.4,0.3l0.4,0.3l0.4,0.3l0.4,0.3
				l0.4,0.4l0.4,0.4l0.4,0.4l0.4,0.4l0.4,0.4l0.3,0.4l0.4,0.4l0.3,0.4l0.3,0.4l0.3,0.5l0.3,0.4l0.3,0.5l0.3,0.4l0.3,0.5l0.2,0.6
				l0.3,0.5l0.2,0.5l0.2,0.5l0.2,0.5l0.2,0.5l0.1,0.5l0.2,0.6l0.1,0.5l0.1,0.6l0.1,0.5l0.1,0.6l0.1,0.6l0.1,0.6v0.6l0.1,0.6v0.6v0.1
				v0.6l-0.1,0.6v0.6l-0.1,0.6l-0.1,0.6l-0.1,0.6l-0.1,0.6l-0.1,0.5l-0.1,0.6l-0.2,0.5l-0.1,0.5l-0.2,0.5l-0.2,0.6l-0.2,0.5
				l-0.2,0.4l-0.3,0.6l-0.2,0.5l-0.3,0.5l-0.3,0.5l-0.3,0.5l-0.3,0.4l-0.3,0.5l-0.3,0.4l-0.3,0.4l-0.4,0.4l-0.3,0.4l-0.4,0.4
				l-0.4,0.4l-0.4,0.4l-0.4,0.3l-0.4,0.4l-0.4,0.3l-0.4,0.3l-0.4,0.3l-0.4,0.3l-0.4,0.3l-0.4,0.3l-0.4,0.3l-0.5,0.3l-0.5,0.3
				l-0.4,0.2l-0.5,0.2l-0.6,0.2l-0.5,0.2l-0.5,0.2l-0.5,0.2l-0.5,0.2l-0.5,0.1l-0.6,0.2l-0.5,0.1l-0.6,0.1l-0.6,0.1l-0.6,0.1
				l-0.6,0.1l-0.6,0.1l-0.6,0.1l-0.6,0.1l-0.6,0.1h-0.6h-0.6h-0.6h-0.6h-0.6h-0.6h-0.6h-0.6h-0.6h-0.6h-0.6h-0.6h-0.6h-0.6h-0.6
				h-0.6h-0.6h-0.6h-0.6h-0.6h-0.6h-0.6h-0.6h-0.6h-0.6h-0.6h-0.6h-0.6h-0.6h-0.6v-0.6v-0.6v-0.6v-0.6v-0.6v-0.6V257v-0.6v-0.7V255
				v-0.6v-0.6v-0.6v-0.6v-0.6v-0.6v-0.6v-0.2V250v-0.6v-0.6v-0.6v-0.6v-0.6v-0.6v-0.6v-0.3v-0.6v-0.6v-0.6v-0.6v-0.6v-0.6V241v-0.6
				v-0.2v-0.6v-0.6v-0.6v-0.6v-0.6v-0.6v-0.6v-0.6v-0.6V234v-0.6v-0.6v-0.6v-0.6v-0.6v0v-0.6v-0.6v-0.5v-0.6v-0.6v-0.6v-0.6V226
				v-0.6v-0.6v-0.6v-0.6V223v-0.6v-0.6v-0.6v-0.6v0.1V220v-0.6v-0.5H1255.5z M1264.2,226.9v0.6v0.6v0.6v0.6v0.6v0.6v0.6v0.6v0.6v0.6
				v0.6v0.6v0.6v0.6v0.6v0.6v0.6v0.6v0.6v0.6v0.6v0.6v0.6v0.6v0.6v0.6v0.6v0.6v0.6v0.6v0.6v0.6v0.6v0.6v0.6v0.6v0.6v0.6v0.6v0.6v0.6
				v0.6v0.6v0.6v0.6h0.6h0.6h0.6h0.5h0.6h0.6h0.6h0.6h0.6h0.5h0.6h0.6h0.6h0.6l0.6-0.1l0.6-0.1l0.6-0.1l0.6-0.1l0.6-0.1l0.6-0.2
				l0.5-0.2l0.6-0.2l0.6-0.2l0.6-0.3l0.5-0.3l0.5-0.3l0.5-0.3l0.4-0.3l0.4-0.4l0.4-0.4l0.4-0.4l0.3-0.4l0.4-0.4l0.3-0.5l0.3-0.5
				l0.3-0.5l0.3-0.6l0.3-0.6l0.2-0.5l0.2-0.6l0.2-0.5l0.1-0.6l0.1-0.6l0.1-0.6l0.1-0.6l0.1-0.6v-0.6v-0.1v-0.6l-0.1-0.6l-0.1-0.6
				l-0.1-0.6l-0.1-0.6l-0.1-0.6l-0.2-0.6l-0.2-0.5l-0.2-0.6l-0.2-0.5l-0.2-0.4l-0.3-0.5l-0.3-0.4l-0.3-0.4l-0.3-0.4l-0.3-0.4
				l-0.3-0.4l-0.3-0.4l-0.4-0.4l-0.4-0.3l-0.4-0.3l-0.4-0.3l-0.4-0.3l-0.4-0.3l-0.5-0.3l-0.4-0.2l-0.5-0.2l-0.6-0.2l-0.5-0.2
				l-0.6-0.2l-0.6-0.1l-0.6-0.1l-0.6-0.1l-0.6-0.1l-0.6-0.1h-0.6h-0.6h-0.6h-0.6h-0.5h-0.6h-0.6h-0.6h-0.6h-0.6h-0.5h-0.6h-0.6h-0.8
				V226.9z"/>
			<path class="st0" d="M1302.8,218.8h0.6h0.6h0.6h0.6h0.6h0.6h0.6h0.6h0.6h0.5h0.6h0.6h0.6h0.6h0.6h0.6h0.6h0.6h0.6h0.6h0.6h0.6
				h0.6h0.6h0.6h0.6h0.6h0.5h0.6h0.6h0.6h0.6h0.6h0.6h0.6h0.6h0.6h0.6h0.6h0.6h0.6h0.6h0.6h0.6h0.6h0.5h0.6h0.6h0.6h0.6h0.6h0.6h0.6
				h0.6h0.6v0.6v0.6v0.5v0.6v0.6v0.6v0.5v0.6v0.6v0.6v0.6v0.5v0.6v0.6h-0.6h-0.6h-0.6h-0.5h-0.6h-0.6h-0.6h-0.6h-0.6h-0.6h-0.6h-0.5
				h-0.6h-0.6h-0.6h-0.6h-0.6h-0.6h-0.6h-0.5h-0.6h-0.6h-0.6h-0.6h-0.6h-0.6h-0.6h-0.5h-0.6h-0.6h-0.6h-0.6h-0.6h-0.6h-0.6h-0.5
				h-0.6h-0.6h-0.6h-0.6v0.6v0.5v0.6v0.6v0.6v0.5v0.6v0.6v0.6v0.5v0.6v0.6v0.6v0.5v0.6v0.6h0.6h0.6h0.6h0.6h0.6h0.6h0.6h0.6h0.5h0.6
				h0.6h0.6h0.6h0.6h0.6h0.6h0.6h0.6h0.6h0.6h0.6h0.6h0.6h0.6h0.6h0.6h0.5h0.6h0.6h0.6h0.6h0.6h0.6h0.6h0.6v0.6v0.6v0.5v0.6v0.6v0.6
				v0.5v0.6v0.6v0.6v0.6v0.5v0.6v0.6h-0.6h-0.6h-0.6h-0.6h-0.6h-0.6h-0.6h-0.6h-0.5h-0.6h-0.6h-0.6h-0.6h-0.6h-0.6h-0.6h-0.6h-0.6
				h-0.6h-0.6h-0.6h-0.6h-0.6h-0.6h-0.6h-0.6h-0.5h-0.6h-0.6h-0.6h-0.6h-0.6h-0.6h-0.6h-0.6v0.6v0.6v0.6v0.6v0.6v0.6v0.6v0.6v0.6
				v0.6v0.6v0.6v0.6v0.6v0.6v0.6h0.6h0.6h0.6h0.6h0.6h0.6h0.6h0.6h0.6h0.6h0.6h0.6h0.6h0.6h0.6h0.6h0.6h0.6h0.6h0.6h0.6h0.6h0.6h0.6
				h0.6h0.6h0.6h0.6h0.6h0.6h0.6h0.6h0.6h0.6h0.6h0.6h0.6h0.6h0.6h0.6v0.6v0.6v0.5v0.6v0.6v0.6v0.5v0.6v0.6v0.6v0.6v0.5v0.6v0.6
				h-0.6h-0.6h-0.6h-0.6h-0.6h-0.6h-0.6h-0.6h-0.6h-0.6h-0.6h-0.6h-0.6h-0.6h-0.6h-0.6h-0.6h-0.6h-0.6h-0.6h-0.6h-0.6h-0.6h-0.6
				h-0.6h-0.6h-0.6h-0.6h-0.6h-0.6h-0.6h-0.6h-0.6h-0.6h-0.6h-0.6h-0.6h-0.6h-0.6h-0.6h-0.6h-0.6h-0.6h-0.6h-0.6h-0.6h-0.6h-0.6
				h-0.6h-0.6h-0.6h-0.6h-0.6h-0.6h-0.6v-0.6V262v-0.6v-0.6v-0.6v-0.6v-0.6v-0.6v-2.7V255v-0.6v-0.6v-0.6v-0.6v-0.6v-0.6v-0.6v-0.2
				V250v-0.6v-0.6v-0.6v-0.6v-0.6v-0.6v-0.6v-0.3v-0.6v-0.6v-0.6v-0.6v-0.6v-0.6V241v-0.6v-0.2v-0.6v-0.6v-0.6v-0.6v-0.6v-0.6v-0.6
				v-0.6v-0.6V234v-0.6v-0.6v-0.6v-0.6v-0.6v0v-0.6v-0.6v-0.5v-0.6v-0.6v-0.6v-0.6V226v-0.6v-0.6v-0.6v-0.6V223v-0.6v-0.6v-0.6v-0.6
				v0.1V220v-0.6v-0.5H1302.8z"/>
			<path class="st0" d="M1339.8,218.8h0.6h0.6h0.6h0.6h0.6h0.6h0.6h0.6h0.6h0.6h0.6h0.6h0.6h0.6h0.6h0.6h0.6l0.2,0.5l0.2,0.6
				l0.2,0.5l0.2,0.5l0.2,0.6l0.2,0.5l0.2,0.5l0.2,0.6l0.2,0.5l0.2,0.5l0.2,0.6l0.2,0.5l0.2,0.5l0.2,0.5l0.2,0.6l0.2,0.5l0.2,0.5
				l0.2,0.6l0.2,0.5l0.2,0.5l0.2,0.6l0.2,0.5l0.2,0.5l0.2,0.6l0.2,0.5l0.2,0.5l0.2,0.6l0.2,0.5l0.2,0.5l0.2,0.6l0.2,0.5l0.2,0.5
				l0.2,0.6l0.2,0.5l0.2,0.5l0.2,0.6l0.2,0.5l0.2,0.5l0.2,0.6l0.2,0.5l0.2,0.5l0.2,0.5l0.2,0.6l0.2,0.5l0.2,0.5l0.2,0.6l0.2,0.5
				l0.2,0.5l0.2,0.6l0.2,0.5l0.2,0.5l0.2,0.6l0.2,0.5l0.2,0.5l0.2,0.6l0.2,0.5l0.2-0.5l0.2-0.6l0.2-0.5l0.2-0.5l0.2-0.6l0.2-0.5
				l0.2-0.5l0.2-0.6l0.2-0.5l0.2-0.5l0.2-0.6l0.2-0.5l0.2-0.5l0.2-0.6l0.2-0.5l0.2-0.5l0.2-0.5l0.2-0.6l0.2-0.5l0.2-0.5l0.2-0.6
				l0.2-0.5l0.2-0.5l0.2-0.6l0.2-0.5l0.2-0.5l0.2-0.6l0.2-0.5l0.2-0.5l0.2-0.6l0.2-0.5l0.2-0.5l0.2-0.6l0.2-0.5l0.2-0.5l0.2-0.6
				l0.2-0.5l0.2-0.5l0.2-0.6l0.2-0.5l0.2-0.5l0.2-0.6l0.2-0.5l0.2-0.5l0.2-0.5l0.2-0.6l0.2-0.5l0.2-0.5l0.2-0.6l0.2-0.5l0.2-0.5
				l0.2-0.6l0.2-0.5l0.2-0.5l0.2-0.6l0.2-0.5h0.6h0.6h0.5h0.6h0.6h0.6h0.5h0.6h0.6h0.6h0.5h0.6h0.6h0.6h0.5h0.6h0.6l-0.2,0.5
				l-0.2,0.6l-0.2,0.5l-0.2,0.5l-0.2,0.5l-0.2,0.6l-0.2,0.5l-0.2,0.5l-0.2,0.6l-0.2,0.5l-0.2,0.5l-0.2,0.5l-0.2,0.6l-0.2,0.5
				l-0.2,0.5l-0.2,0.5l-0.2,0.6l-0.2,0.5l-0.2,0.5l-0.2,0.6l-0.2,0.5l-0.2,0.5l-0.2,0.5l-0.2,0.6l-0.2,0.5l-0.2,0.5l-0.2,0.6
				l-0.2,0.5l-0.2,0.5l-0.2,0.5l-0.2,0.6l-0.2,0.5l-0.2,0.5l-0.2,0.5l-0.2,0.6l-0.2,0.5l-0.2,0.5l-0.2,0.6l-0.2,0.5l-0.2,0.5
				l-0.2,0.5l-0.2,0.6l-0.2,0.5l-0.2,0.5l-0.2,0.6l-0.2,0.5l-0.2,0.5l-0.2,0.5l-0.2,0.6l-0.2,0.5l-0.2,0.5l-0.2,0.5l-0.2,0.6
				l-0.2,0.5l-0.2,0.5l-0.2,0.6l-0.2,0.5l-0.2,0.5l-0.2,0.5l-0.2,0.6l-0.2,0.5l-0.2,0.5l-0.2,0.6l-0.2,0.5l-0.2,0.5l-0.2,0.5
				l-0.2,0.6l-0.2,0.5l-0.2,0.5l-0.2,0.5l-0.2,0.6l-0.2,0.5l-0.2,0.5l-0.2,0.6l-0.2,0.5l-0.2,0.5l-0.2,0.5l-0.2,0.6l-0.2,0.5h-0.6
				h-0.5h-0.6h-0.6h-0.6h-0.5h-0.6h-0.6h-0.5h-0.6h-0.6h-0.6h-0.5h-0.6l-0.2-0.5l-0.2-0.6l-0.2-0.5l-0.2-0.5l-0.2-0.5l-0.2-0.6
				l-0.2-0.5l-0.2-0.5l-0.2-0.6l-0.2-0.5l-0.2-0.5l-0.2-0.5l-0.2-0.6l-0.2-0.5l-0.2-0.5l-0.2-0.5l-0.2-0.6l-0.2-0.5l-0.2-0.5
				l-0.2-0.6l-0.2-0.5l-0.2-0.5l-0.2-0.5l-0.2-0.6l-0.2-0.5l-0.2-0.5l-0.2-0.6l-0.2-0.5l-0.2-0.5l-0.2-0.5l-0.2-0.6l-0.2-0.5
				l-0.2-0.5l-0.2-0.5l-0.2-0.6l-0.2-0.5l-0.2-0.5l-0.2-0.6l-0.2-0.5l-0.2-0.5l-0.2-0.5l-0.2-0.6l-0.2-0.5l-0.2-0.5l-0.2-0.6
				l-0.2-0.5l-0.2-0.5l-0.2-0.5l-0.2-0.6l-0.2-0.5l-0.2-0.5l-0.2-0.5l-0.2-0.6l-0.2-0.5l-0.2-0.5l-0.2-0.6l-0.2-0.5l-0.2-0.5
				l-0.2-0.5l-0.2-0.6l-0.2-0.5l-0.2-0.5l-0.2-0.6l-0.2-0.5l-0.2-0.5l-0.2-0.5l-0.2-0.6l-0.2-0.5l-0.2-0.5l-0.2-0.5l-0.2-0.6
				l-0.2-0.5l-0.2-0.5l-0.2-0.6l-0.2-0.5l-0.2-0.5l-0.2-0.5l-0.2-0.6L1339.8,218.8z"/>
			<path class="st0" d="M1388.9,218.8h0.6h0.6h0.6h0.6h0.6h0.6h0.6h0.6h0.6h0.5h0.6h0.6h0.6h0.6h0.6h0.6h0.6h0.6h0.6h0.6h0.6h0.6
				h0.6h0.6h0.6h0.6h0.6h0.5h0.6h0.6h0.6h0.6h0.6h0.6h0.6h0.6h0.6h0.6h0.6h0.6h0.6h0.6h0.6h0.6h0.6h0.5h0.6h0.6h0.6h0.6h0.6h0.6h0.6
				h0.6h0.6v0.6v0.6v0.5v0.6v0.6v0.6v0.5v0.6v0.6v0.6v0.6v0.5v0.6v0.6h-0.6h-0.6h-0.6h-0.5h-0.6h-0.6h-0.6h-0.6h-0.6h-0.6h-0.6h-0.5
				h-0.6h-0.6h-0.6h-0.6h-0.6h-0.6h-0.6h-0.5h-0.6h-0.6h-0.6h-0.6h-0.6h-0.6h-0.6h-0.5h-0.6h-0.6h-0.6h-0.6h-0.6h-0.6h-0.6h-0.5
				h-0.6h-0.6h-0.6h-0.6v0.6v0.5v0.6v0.6v0.6v0.5v0.6v0.6v0.6v0.5v0.6v0.6v0.6v0.5v0.6v0.6h0.6h0.6h0.6h0.6h0.6h0.6h0.6h0.6h0.5h0.6
				h0.6h0.6h0.6h0.6h0.6h0.6h0.6h0.6h0.6h0.6h0.6h0.6h0.6h0.6h0.6h0.6h0.5h0.6h0.6h0.6h0.6h0.6h0.6h0.6h0.6v0.6v0.6v0.5v0.6v0.6v0.6
				v0.5v0.6v0.6v0.6v0.6v0.5v0.6v0.6h-0.6h-0.6h-0.6h-0.6h-0.6h-0.6h-0.6h-0.6h-0.5h-0.6h-0.6h-0.6h-0.6h-0.6h-0.6h-0.6h-0.6h-0.6
				h-0.6h-0.6h-0.6h-0.6h-0.6h-0.6h-0.6h-0.6h-0.5h-0.6h-0.6h-0.6h-0.6h-0.6h-0.6h-0.6h-0.6v0.6v0.6v0.6v0.6v0.6v0.6v0.6v0.6v0.6
				v0.6v0.6v0.6v0.6v0.6v0.6v0.6h0.6h0.6h0.6h0.6h0.6h0.6h0.6h0.6h0.6h0.6h0.6h0.6h0.6h0.6h0.6h0.6h0.6h0.6h0.6h0.6h0.6h0.6h0.6h0.6
				h0.6h0.6h0.6h0.6h0.6h0.6h0.6h0.6h0.6h0.6h0.6h0.6h0.6h0.6h0.6h0.6v0.6v0.6v0.5v0.6v0.6v0.6v0.5v0.6v0.6v0.6v0.6v0.5v0.6v0.6
				h-0.6h-0.6h-0.6h-0.6h-0.6h-0.6h-0.6h-0.6h-0.6h-0.6h-0.6h-0.6h-0.6h-0.6h-0.6h-0.6h-0.6h-0.6h-0.6h-0.6h-0.6h-0.6h-0.6h-0.6
				h-0.6h-0.6h-0.6h-0.6h-0.6h-0.6h-0.6h-0.6h-0.6h-0.6h-0.6h-0.6h-0.6h-0.6h-0.6h-0.6h-0.6h-0.6h-0.6h-0.6h-0.6h-0.6h-0.6h-0.6
				h-0.6h-0.6h-0.6h-0.6h-0.6h-0.6h-0.6v-0.6V262v-0.6v-0.6v-0.6v-0.6v-0.6v-0.6v-2.7V255v-0.6v-0.6v-0.6v-0.6v-0.6v-0.6v-0.6v-0.2
				V250v-0.6v-0.6v-0.6v-0.6v-0.6v-0.6v-0.6v-0.3v-0.6v-0.6v-0.6v-0.6v-0.6v-0.6V241v-0.6v-0.2v-0.6v-0.6v-0.6v-0.6v-0.6v-0.6v-0.6
				v-0.6v-0.6V234v-0.6v-0.6v-0.6v-0.6v-0.6v0v-0.6v-0.6v-0.5v-0.6v-0.6v-0.6v-0.6V226v-0.6v-0.6v-0.6v-0.6V223v-0.6v-0.6v-0.6v-0.6
				v0.1V220v-0.6v-0.5H1388.9z"/>
			<path class="st0" d="M1429.5,218.8h0.6h0.6h0.6h0.6h0.6h0.6h0.6h0.6h0.6h0.6h0.6h0.6h0.6h0.6h0.6v0.6v0.6v0.6v0.6v0.6v0.6v0.6
				v0.6v0.6v0.6v0.6v0.6v0.6v0.6v0.5v0.6v0.6v0.6v0.6v0.6v0.6v0.6v0.6v0.6v0.6v0.6v0.6v0.6v0.6v0.6v0.6v0.6v0.6v0.6v0.6v0.6v0.6v0.6
				v0.6v0.6v0.6v0.6v0.6v0.6v0.5v0.6v0.6v0.6v0.6v0.6v0.6v0.6v0.6v0.6v0.6v0.6v0.6v0.6v0.6h0.6h0.6h0.6h0.6h0.6h0.6h0.5h0.6h0.6h0.6
				h0.6h0.6h0.6h0.6h0.6h0.6h0.6h0.6h0.5h0.6h0.6h0.6h0.6h0.6h0.6h0.6h0.6h0.6h0.6h0.6h0.5h0.6h0.6h0.6h0.6h0.6h0.6v0.6v0.6v0.6v0.6
				v0.6v0.6v0.6v0.6v0.6v0.6v0.6v0.6v0.6v0.6h-0.6h-0.6h-0.6h-0.6h-0.6h-0.6h-0.6h-0.6h-0.6h-0.6h-0.6h-0.6h-0.6h-0.6h-0.6h-0.6
				h-0.6h-0.6h-0.6h-0.6h-0.6h-0.6h-0.6h-0.6h-0.6h-0.6h-0.6h-0.6h-0.6h-0.6h-0.6h-0.6h-0.6h-0.6h-0.6h-0.6h-0.6h-0.6h-0.6h-0.6
				h-0.6h-0.6h-0.6h-0.6h-0.6h-0.6h-0.6h-0.6h-0.6h-0.6h-0.6h-0.6v-0.6v-0.6v-0.6v-0.6v-0.6v-0.6v-0.6v-0.6v-3.2V255v-0.6v-0.6v-0.6
				v-0.6v-0.6v-0.6v-0.6v-0.2V250v-0.6v-0.6v-0.6v-0.6v-0.6v-0.6v-0.6v-0.3v-0.6v-0.6v-0.6v-0.6v-0.6v-0.6V241v-0.6v-0.2v-0.6v-0.6
				v-0.6v-0.6v-0.6v-0.6v-0.6v-0.6v-0.6V234v-0.6v-0.6v-0.6v-0.6v-0.6v0v-0.6v-0.6v-0.5v-0.6v-0.6v-0.6v-0.6V226v-0.6v-0.6v-0.6
				v-0.6V223v-0.6v-0.6v-0.6v-0.6v0.1V220v-0.6v-0.5H1429.5z"/>
			<path class="st0" d="M1485,261.5h-0.6h-0.6l-0.6-0.1l-0.6-0.1l-0.6-0.1l-0.6-0.1l-0.6-0.1l-0.6-0.1l-0.5-0.1l-0.6-0.2l-0.5-0.1
				l-0.5-0.2l-0.6-0.1l-0.5-0.2l-0.5-0.2l-0.4-0.2l-0.6-0.2l-0.5-0.2l-0.5-0.2l-0.5-0.3l-0.4-0.3l-0.5-0.2l-0.4-0.3l-0.4-0.3
				l-0.4-0.3l-0.4-0.3l-0.4-0.3l-0.4-0.3l-0.4-0.3l-0.4-0.4l-0.3-0.4l-0.4-0.4l-0.4-0.4l-0.4-0.4l-0.3-0.4l-0.3-0.4l-0.3-0.4
				l-0.3-0.4l-0.3-0.5l-0.3-0.5l-0.3-0.5l-0.3-0.5l-0.3-0.5l-0.2-0.5l-0.2-0.6l-0.2-0.5l-0.2-0.5l-0.2-0.6l-0.2-0.5l-0.1-0.5
				l-0.2-0.6l-0.1-0.6l-0.1-0.5l-0.1-0.6l-0.1-0.6l-0.1-0.6l-0.1-0.6v-0.4l-0.1-0.6V240v-0.1v-0.6l0.1-0.6v-0.5l0.1-0.6l0.1-0.6
				l0.1-0.6l0.1-0.6l0.1-0.6l0.1-0.5l0.2-0.6l0.2-0.5l0.2-0.6l0.2-0.5l0.2-0.5l0.2-0.6l0.2-0.5l0.2-0.4l0.3-0.5l0.2-0.5l0.3-0.4
				l0.3-0.5l0.3-0.4l0.3-0.4l0.3-0.4l0.3-0.4l0.3-0.4l0.3-0.4l0.3-0.4l0.4-0.4l0.4-0.4l0.3-0.4l0.4-0.3l0.4-0.4l0.4-0.3l0.4-0.3
				l0.4-0.3l0.4-0.3l0.4-0.3l0.4-0.3l0.5-0.3l0.5-0.3l0.4-0.2l0.5-0.3l0.6-0.2l0.5-0.2l0.5-0.2l0.5-0.2l0.5-0.2l0.5-0.2l0.6-0.2
				l0.5-0.1l0.6-0.2l0.5-0.1l0.6-0.1l0.6-0.1l0.6-0.1l0.6-0.1l0.6-0.1l0.6-0.1h0.6h0.6h0.6h0.6l0.6,0.1l0.6,0.1l0.6,0.1l0.6,0.1
				l0.6,0.1l0.6,0.1l0.5,0.1l0.6,0.2l0.5,0.1l0.5,0.2l0.6,0.1l0.5,0.2l0.5,0.2l0.5,0.2l0.5,0.3l0.5,0.2l0.5,0.2l0.5,0.3l0.4,0.2
				l0.5,0.3l0.4,0.3l0.4,0.3l0.4,0.3l0.4,0.3l0.4,0.3l0.4,0.3l0.4,0.3l0.4,0.4l0.4,0.3l0.4,0.4l0.4,0.4l0.4,0.4l0.3,0.4l0.3,0.4
				l0.3,0.4l0.3,0.4l0.3,0.5l0.3,0.5l0.3,0.5l0.3,0.5l0.3,0.5l0.2,0.5l0.3,0.6l0.2,0.5l0.2,0.5l0.2,0.6l0.2,0.5l0.1,0.5l0.2,0.6
				l0.1,0.6l0.1,0.5l0.1,0.6l0.1,0.6l0.1,0.6l0.1,0.6v0.6l0.1,0.6v0.6v0.1v0.6l-0.1,0.6v0.6l-0.1,0.6l-0.1,0.6l-0.1,0.6l-0.1,0.6
				l-0.1,0.6l-0.1,0.5l-0.2,0.6l-0.2,0.5l-0.2,0.6l-0.2,0.5l-0.2,0.5l-0.2,0.5l-0.2,0.6l-0.2,0.4l-0.2,0.5l-0.3,0.5l-0.3,0.4
				l-0.3,0.4l-0.3,0.5l-0.3,0.4l-0.3,0.4l-0.3,0.4l-0.3,0.4l-0.3,0.4l-0.3,0.4l-0.4,0.4l-0.3,0.4l-0.4,0.4l-0.4,0.3l-0.4,0.4
				l-0.4,0.3l-0.4,0.3l-0.4,0.3l-0.4,0.3l-0.4,0.3l-0.4,0.3l-0.5,0.3l-0.5,0.3l-0.4,0.2l-0.5,0.3l-0.6,0.2l-0.5,0.2l-0.5,0.2
				l-0.5,0.2l-0.5,0.2l-0.5,0.2l-0.6,0.2l-0.5,0.1l-0.6,0.2l-0.5,0.1l-0.6,0.1l-0.6,0.1l-0.6,0.1l-0.6,0.1l-0.6,0.1l-0.6,0.1h-0.6
				h-0.8V261.5z M1485.1,253.4h0.6l0.6-0.1l0.6-0.1l0.6-0.1l0.6-0.1l0.6-0.1l0.6-0.2l0.5-0.2l0.6-0.2l0.5-0.2l0.4-0.2l0.5-0.3
				l0.4-0.3l0.4-0.3l0.4-0.3l0.4-0.3l0.4-0.4l0.4-0.4l0.3-0.4l0.3-0.4l0.3-0.4l0.3-0.4l0.3-0.4l0.3-0.4l0.3-0.5l0.2-0.5l0.2-0.6
				l0.2-0.5l0.2-0.6l0.2-0.5l0.1-0.6l0.1-0.6l0.1-0.6l0.1-0.6l0.1-0.6V240v-0.1v-0.6l-0.1-0.6l-0.1-0.6l-0.1-0.6l-0.1-0.6l-0.2-0.6
				l-0.1-0.5l-0.2-0.6l-0.2-0.6l-0.2-0.5l-0.2-0.5l-0.3-0.5l-0.3-0.4l-0.3-0.5l-0.3-0.4l-0.3-0.4l-0.3-0.4l-0.4-0.4l-0.4-0.4
				l-0.4-0.3l-0.4-0.4l-0.4-0.3l-0.4-0.3l-0.4-0.3l-0.5-0.3l-0.4-0.2l-0.5-0.3l-0.6-0.2l-0.5-0.2l-0.6-0.2l-0.6-0.1l-0.6-0.1
				l-0.6-0.1l-0.6-0.1l-0.6-0.1h-0.6h-0.6l-0.6,0.1l-0.6,0.1l-0.6,0.1l-0.6,0.1l-0.6,0.1l-0.5,0.2l-0.6,0.2l-0.5,0.2l-0.5,0.3
				l-0.5,0.2l-0.4,0.3l-0.4,0.3l-0.4,0.3l-0.4,0.3l-0.4,0.3l-0.4,0.4l-0.3,0.3l-0.4,0.4l-0.3,0.4l-0.3,0.4l-0.3,0.4l-0.3,0.4
				l-0.3,0.4l-0.3,0.5l-0.2,0.5l-0.2,0.5l-0.2,0.6l-0.2,0.6l-0.2,0.5l-0.1,0.6l-0.1,0.6l-0.1,0.6l-0.1,0.6l-0.1,0.6v0.6v0.1v0.6
				l0.1,0.6l0.1,0.6l0.1,0.6l0.1,0.6l0.1,0.6l0.2,0.5l0.2,0.6l0.2,0.5l0.2,0.6l0.3,0.5l0.2,0.5l0.3,0.4l0.3,0.5l0.3,0.4l0.3,0.4
				l0.4,0.4l0.3,0.4l0.4,0.4l0.4,0.3l0.4,0.4l0.4,0.3l0.4,0.3l0.4,0.3l0.5,0.3l0.4,0.2l0.6,0.2l0.5,0.2l0.5,0.2l0.6,0.2l0.6,0.1
				l0.6,0.1l0.6,0.1l0.6,0.1l0.6,0.1h0.5V253.4z"/>
			<path class="st0" d="M1516.2,218.8h0.6h0.6h0.6h0.5h0.6h0.6h0.6h0.6h0.6h0.5h0.6h0.6h0.6h0.6h0.6h0.5h0.6h0.6h0.6h0.6h0.6h0.5
				h0.6h0.6h0.6h0.6h0.6h0.5h0.6h0.6h0.6l0.6,0.1h0.6l0.6,0.1l0.6,0.1l0.6,0.1l0.5,0.1l0.6,0.1l0.5,0.1l0.5,0.2l0.5,0.2l0.5,0.1
				l0.6,0.2l0.5,0.2l0.6,0.3l0.5,0.3l0.5,0.3l0.5,0.3l0.4,0.3l0.4,0.3l0.4,0.4l0.4,0.3l0.4,0.4l0.4,0.4l0.3,0.4l0.3,0.4l0.3,0.4
				l0.3,0.4l0.3,0.5l0.3,0.4l0.2,0.5l0.2,0.5l0.2,0.5l0.2,0.6l0.2,0.5l0.1,0.6l0.1,0.6l0.1,0.6l0.1,0.6l0.1,0.6l0.1,0.6v0.6v0.1v0.6
				l-0.1,0.6l-0.1,0.6l-0.1,0.6l-0.1,0.6l-0.1,0.6l-0.1,0.6l-0.2,0.5l-0.2,0.6l-0.2,0.5l-0.2,0.4l-0.3,0.6l-0.3,0.5l-0.3,0.5
				l-0.3,0.4l-0.3,0.4l-0.4,0.4l-0.4,0.4l-0.4,0.4l-0.4,0.3l-0.4,0.4l-0.4,0.3l-0.4,0.3l-0.4,0.3l-0.4,0.3l-0.4,0.3l-0.5,0.2
				l-0.4,0.2l-0.5,0.2l-0.5,0.2l-0.5,0.2l-0.6,0.2l-0.5,0.2l-0.5,0.1l-0.5,0.1l-0.5,0.1l-0.6,0.1l-0.5,0.1l-0.6,0.1l-0.5,0.1
				l-0.6,0.1l-0.6,0.1h-0.6h-0.6h-0.6h-0.6h-0.5h-0.6h-0.6h-0.6h-0.5h-0.6h-0.6h-0.6h-0.5h-0.6h-0.6v0.6v0.6v0.6v0.6v0.6v0.6v0.6
				v0.6v0.6v0.6v0.6v0.6v0.6v0.6v0.6v0.6v0.6v0.6v0.6v0.6v0.6v0.6h-0.6h-0.6h-0.6h-0.6h-0.6h-0.6h-0.6h-0.6h-0.6h-0.6h-0.6h-0.6
				h-0.6h-0.6h-0.6v-0.6v-0.6v-0.6v-0.6v-0.6v-0.6v-0.6V257v-1.3V255v-0.6v-0.6v-0.6v-0.6v-0.6v-0.6v-0.6v-0.2V250v-0.6v-0.6v-0.6
				v-0.6v-0.6v-0.6v-0.6v-0.3v-0.6v-0.6v-0.6v-0.6v-0.6v-0.6V241v-0.6v-0.2v-0.6v-0.6v-0.6v-0.6v-0.6v-0.6v-0.6v-0.6v-0.6V234v-0.6
				v-0.6v-0.6v-0.6v-0.6v0v-0.6v-0.6v-0.5v-0.6v-0.6v-0.6v-0.6V226v-0.6v-0.6v-0.6v-0.6V223v-0.6v-0.6v-0.6v-0.6v0.1V220v-0.6v-0.5
				H1516.2z M1532.6,240.2h0.6l0.6-0.1l0.6-0.1l0.6-0.1l0.5-0.2l0.5-0.2l0.5-0.2l0.4-0.2l0.4-0.3l0.4-0.3l0.4-0.3l0.4-0.4l0.4-0.4
				l0.3-0.4l0.3-0.5l0.2-0.5l0.2-0.5l0.1-0.6l0.1-0.6v-0.6v-0.1v-0.6l-0.1-0.6l-0.1-0.6l-0.2-0.5l-0.2-0.5l-0.2-0.4l-0.3-0.4
				l-0.3-0.4l-0.4-0.4l-0.3-0.3l-0.4-0.3l-0.4-0.3l-0.4-0.2l-0.5-0.2l-0.4-0.2l-0.5-0.2l-0.6-0.1l-0.6-0.1l-0.6-0.1l-0.6-0.1h-0.6
				h-0.6h-0.6h-0.6h-0.6h-0.6h-0.6h-0.5h-0.6h-0.6h-0.6h-0.6h-0.6h-0.6v0.6v0.6v0.6v0.6v0.6v0.6v0.6v0.6v0.6v0.6v0.6v0.6v0.6v0.6
				v0.6v0.6v0.6v0.6v0.6v0.6v0.6v0.6v0.6h0.6h0.6h0.6h0.6h0.6h0.6h0.6h0.6h0.6h0.6h0.6h0.6h0.7V240.2z"/>
			<path class="st0" d="M1556.7,218.8h0.6h0.6h0.6h0.6h0.6h0.6h0.6h0.6h0.6h0.5h0.6h0.6h0.6h0.6h0.6h0.6h0.6h0.6h0.6h0.6h0.6h0.6
				h0.6h0.6h0.6h0.6h0.6h0.5h0.6h0.6h0.6h0.6h0.6h0.6h0.6h0.6h0.6h0.6h0.6h0.6h0.6h0.6h0.6h0.6h0.6h0.5h0.6h0.6h0.6h0.6h0.6h0.6h0.6
				h0.6h0.6v0.6v0.6v0.5v0.6v0.6v0.6v0.5v0.6v0.6v0.6v0.6v0.5v0.6v0.6h-0.6h-0.6h-0.6h-0.5h-0.6h-0.6h-0.6h-0.6h-0.6h-0.6h-0.6h-0.5
				h-0.6h-0.6h-0.6h-0.6h-0.6h-0.6h-0.6h-0.5h-0.6h-0.6h-0.6h-0.6h-0.6h-0.6h-0.6h-0.5h-0.6h-0.6h-0.6h-0.6h-0.6h-0.6h-0.6h-0.5
				h-0.6h-0.6h-0.6h-0.6v0.6v0.5v0.6v0.6v0.6v0.5v0.6v0.6v0.6v0.5v0.6v0.6v0.6v0.5v0.6v0.6h0.6h0.6h0.6h0.6h0.6h0.6h0.6h0.6h0.5h0.6
				h0.6h0.6h0.6h0.6h0.6h0.6h0.6h0.6h0.6h0.6h0.6h0.6h0.6h0.6h0.6h0.6h0.5h0.6h0.6h0.6h0.6h0.6h0.6h0.6h0.6v0.6v0.6v0.5v0.6v0.6v0.6
				v0.5v0.6v0.6v0.6v0.6v0.5v0.6v0.6h-0.6h-0.6h-0.6h-0.6h-0.6h-0.6h-0.6h-0.6h-0.5h-0.6h-0.6h-0.6h-0.6h-0.6h-0.6h-0.6h-0.6h-0.6
				h-0.6h-0.6h-0.6h-0.6h-0.6h-0.6h-0.6h-0.6h-0.5h-0.6h-0.6h-0.6h-0.6h-0.6h-0.6h-0.6h-0.6v0.6v0.6v0.6v0.6v0.6v0.6v0.6v0.6v0.6
				v0.6v0.6v0.6v0.6v0.6v0.6v0.6h0.6h0.6h0.6h0.6h0.6h0.6h0.6h0.6h0.6h0.6h0.6h0.6h0.6h0.6h0.6h0.6h0.6h0.6h0.6h0.6h0.6h0.6h0.6h0.6
				h0.6h0.6h0.6h0.6h0.6h0.6h0.6h0.6h0.6h0.6h0.6h0.6h0.6h0.6h0.6h0.6v0.6v0.6v0.5v0.6v0.6v0.6v0.5v0.6v0.6v0.6v0.6v0.5v0.6v0.6
				h-0.6h-0.6h-0.6h-0.6h-0.6h-0.6h-0.6h-0.6h-0.6h-0.6h-0.6h-0.6h-0.6h-0.6h-0.6h-0.6h-0.6h-0.6h-0.6h-0.6h-0.6h-0.6h-0.6h-0.6
				h-0.6h-0.6h-0.6h-0.6h-0.6h-0.6h-0.6h-0.6h-0.6h-0.6h-0.6h-0.6h-0.6h-0.6h-0.6h-0.6h-0.6h-0.6h-0.6h-0.6h-0.6h-0.6h-0.6h-0.6
				h-0.6h-0.6h-0.6h-0.6h-0.6h-0.6h-0.6v-0.6V262v-0.6v-0.6v-0.6v-0.6v-0.6v-0.6v-2.7V255v-0.6v-0.6v-0.6v-0.6v-0.6v-0.6v-0.6v-0.2
				V250v-0.6v-0.6v-0.6v-0.6v-0.6v-0.6v-0.6v-0.3v-0.6v-0.6v-0.6v-0.6v-0.6v-0.6V241v-0.6v-0.2v-0.6v-0.6v-0.6v-0.6v-0.6v-0.6v-0.6
				v-0.6v-0.6V234v-0.6v-0.6v-0.6v-0.6v-0.6v0v-0.6v-0.6v-0.5v-0.6v-0.6v-0.6v-0.6V226v-0.6v-0.6v-0.6v-0.6V223v-0.6v-0.6v-0.6v-0.6
				v0.1V220v-0.6v-0.5H1556.7z"/>
			<path class="st0" d="M1597.3,218.8h0.6h0.6h0.6h0.6h0.6h0.6h0.6h0.6h0.6h0.6h0.6h0.6h0.6h0.6h0.6h0.6h0.6h0.6h0.6h0.6h0.6h0.6
				h0.6h0.6h0.6h0.6h0.6h0.6h0.6h0.6h0.6h0.6h0.6h0.7l0.7,0.1h0.6l0.6,0.1l0.6,0.1l0.6,0.1l0.6,0.1l0.6,0.1l0.6,0.1l0.6,0.2l0.5,0.2
				l0.6,0.2l0.5,0.2l0.4,0.2l0.5,0.2l0.4,0.3l0.4,0.2l0.4,0.3l0.4,0.3l0.4,0.3l0.4,0.3l0.3,0.3l0.4,0.3l0.4,0.4l0.3,0.4l0.3,0.4
				l0.3,0.4l0.3,0.4l0.3,0.4l0.2,0.5l0.2,0.5l0.2,0.4l0.2,0.6l0.2,0.5l0.1,0.6l0.1,0.6l0.1,0.6l0.1,0.6l0.1,0.6l0.1,0.6v0.6v0.1v0.7
				l-0.1,0.6l-0.1,0.6l-0.1,0.6l-0.1,0.6l-0.1,0.6l-0.2,0.6l-0.2,0.5l-0.2,0.6l-0.2,0.5l-0.2,0.5l-0.2,0.4l-0.3,0.4l-0.3,0.4
				l-0.3,0.4l-0.3,0.4l-0.4,0.4l-0.4,0.4l-0.4,0.4l-0.4,0.3l-0.4,0.3l-0.4,0.3l-0.4,0.3l-0.5,0.3l-0.5,0.3l-0.5,0.3l-0.5,0.2
				l-0.6,0.2l-0.6,0.2l0.3,0.4l0.3,0.4l0.3,0.5l0.3,0.4l0.3,0.4l0.3,0.4l0.3,0.5l0.3,0.4l0.3,0.4l0.3,0.4l0.3,0.4l0.3,0.5l0.3,0.4
				l0.3,0.4l0.3,0.4l0.3,0.4l0.3,0.5l0.3,0.4l0.3,0.4l0.3,0.4l0.3,0.5l0.3,0.4l0.3,0.4l0.3,0.4l0.3,0.4l0.3,0.5l0.3,0.4l0.3,0.4
				l0.3,0.4l0.3,0.5l0.3,0.4l0.3,0.4h-0.6h-0.6h-0.6h-0.6h-0.6h-0.6h-0.6h-0.6h-0.6h-0.6h-0.6h-0.6h-0.6h-0.6h-0.6h-0.6h-0.6h-0.6
				l-0.3-0.4l-0.3-0.4l-0.3-0.5l-0.3-0.4l-0.3-0.4l-0.3-0.4l-0.3-0.4l-0.3-0.4l-0.3-0.5l-0.3-0.4l-0.3-0.4l-0.3-0.4l-0.3-0.4
				l-0.3-0.4l-0.3-0.5l-0.3-0.4l-0.3-0.4l-0.3-0.4l-0.3-0.4l-0.3-0.4l-0.3-0.5l-0.3-0.4l-0.3-0.4l-0.3-0.4l-0.3-0.4l-0.3-0.4
				l-0.3-0.5l-0.3-0.4l-0.3-0.4h-0.6h-0.6h-0.6h-0.6h-0.6h-0.6h-0.6h-0.6h-0.6h-0.6h-0.6h-0.6h-0.6v0.6v0.6v0.6v0.5v0.6v0.6v0.6v0.6
				v0.6v0.6v0.6v0.5v0.6v0.6v0.6v0.6v0.6v0.6v0.6v0.5v0.6v0.6v0.6v0.6h-0.6h-0.6h-0.6h-0.6h-0.6h-0.6h-0.6h-0.6h-0.6h-0.6h-0.6h-0.6
				h-0.6h-0.6h-0.6v-0.6v-0.6v-0.6v-0.6v-0.6v-0.6V257v-0.6v-0.7V255v-0.6v-0.6v-0.6v-0.6v-0.6v-0.6v-0.6v-0.2V250v-0.6v-0.6v-0.6
				v-0.6v-0.6v-0.6v-0.6v-0.3v-0.6v-0.6v-0.6v-0.6v-0.6v-0.6V241v-0.6v-0.2v-0.6v-0.6v-0.6v-0.6v-0.6v-0.6v-0.6v-0.6v-0.6V234v-0.6
				v-0.6v-0.6v-0.6v-0.6v0v-0.6v-0.6v-0.5v-0.6v-0.6v-0.6v-0.6V226v-0.6v-0.6v-0.6v-0.6V223v-0.6v-0.6v-0.6v-0.6v0.1V220v-0.6v-0.5
				H1597.3z M1615.8,239.2h0.7l0.6-0.1l0.6-0.1l0.6-0.1l0.6-0.1l0.5-0.2l0.4-0.2l0.4-0.3l0.4-0.3l0.4-0.3l0.4-0.3l0.3-0.4l0.3-0.4
				l0.3-0.4l0.2-0.5l0.2-0.5l0.1-0.6l0.1-0.6v-0.6V233v-0.6l-0.1-0.6l-0.1-0.6l-0.2-0.6l-0.2-0.5l-0.3-0.4l-0.3-0.4l-0.4-0.4
				l-0.4-0.3l-0.4-0.3l-0.4-0.3l-0.4-0.2l-0.5-0.2l-0.5-0.2l-0.6-0.2l-0.6-0.1l-0.6-0.1l-0.6-0.1h-0.7h-0.6h-0.5h-0.6h-0.6h-0.6
				h-0.5h-0.6h-0.6h-0.5h-0.6h-0.6h-0.5h-0.6h-0.6h-0.6h-0.5h-0.6v0.6v0.6v0.5v0.6v0.6v0.6v0.6v0.6v0.5v0.6v0.6v0.6v0.6v0.5v0.6v0.6
				v0.6v0.6v0.6v0.5v0.6v0.6h0.6h0.6h0.6h0.6h0.5h0.6h0.6h0.6h0.6h0.6h0.6h0.6h0.5h0.6h0.6h0.6h0.5V239.2z"/>
		</g>
	</g>
</g>
<g id="lines">
	<g id="lines-b">
		<path class="st2" d="M770,62.4v85.1c0,9.5-3,16.8-9,22c-6,5.2-15,7.8-27,7.8c-12,0-21-2.6-27.1-7.8c-6.1-5.2-9.1-12.5-9.1-22V62.4
			c0-9.5,3-16.8,9-22c6-5.2,15-7.8,27-7.8c12,0,21,2.6,27.1,7.8C767,45.5,770,52.9,770,62.4z M755.1,147.5V62.4
			c0-11.3-7.1-17-21.3-17c-14.2,0-21.3,5.7-21.3,17v85.1c0,11.3,7.1,17,21.3,17C748.1,164.5,755.1,158.8,755.1,147.5z"/>
		<path class="st2" d="M824.3,174.1h-14.9V35.8h22.3L856,127l24.5-91.3h22.3v138.3h-14.9V59.6L863,152.8h-13.8l-24.9-93.2V174.1z"/>
		<path class="st2" d="M963.8,35.8h22.3l31.3,138.3h-14.9l-7.2-31.9h-40.6l-7.2,31.9h-14.9L963.8,35.8z M974.9,52.4l-17.4,77h34.9
			L974.9,52.4z"/>
		<path class="st2" d="M1062.1,174.1h-14.9V35.8h32.1c11.1,0,19.5,2.6,25.2,7.9c5.7,5.2,8.6,12.5,8.6,21.9v29.8
			c0,14.5-6.2,23.7-18.7,27.7l26.2,51h-16.4l-24.9-48.9h-17.2V174.1z M1098.2,95.4V65.6c0-5.4-1.6-9.6-4.9-12.5
			c-3.3-3-7.9-4.5-14-4.5h-17.2v63.8h17.2C1091.9,112.4,1098.2,106.7,1098.2,95.4z"/>
		<path class="st2" d="M1214.2,174.1h-14.9V35.8h14.9v61.7h41.9V35.8h14.9v138.3h-14.9v-63.8h-41.9V174.1z"/>
		<path class="st2" d="M1332,35.8h22.3l31.3,138.3h-14.9l-7.2-31.9h-40.6l-7.2,31.9h-14.9L1332,35.8z M1343.1,52.4l-17.4,77h34.9
			L1343.1,52.4z"/>
		<path class="st2" d="M1415.4,35.8h32.1c11.1,0,19.5,2.6,25.2,7.9c5.7,5.2,8.6,12.5,8.6,21.9v12.8c0,12.1-5,19.8-15.1,23.2
			c11.5,3.1,17.2,11,17.2,23.6v19.1c0,9.5-2.8,16.8-8.5,22c-5.7,5.2-14.1,7.8-25.3,7.8h-34.2V35.8z M1466.4,78.3V65.6
			c0-4.5-1.7-8.5-5-11.9c-3.3-3.4-8-5.1-13.9-5.1h-17.2v47.9h17.2c6,0,10.6-1.8,13.9-5.5C1464.8,87.2,1466.4,83,1466.4,78.3z
			 M1468.6,144.3v-19.1c0-4.5-1.7-8.7-5.1-12.4c-3.4-3.8-8-5.6-13.8-5.6h-19.4v54.2h19.4c6,0,10.6-1.7,13.9-5
			C1466.9,153,1468.6,149,1468.6,144.3z"/>
		<path class="st2" d="M1541.3,35.8h22.3l31.3,138.3H1580l-7.2-31.9h-40.6l-7.2,31.9H1510L1541.3,35.8z M1552.4,52.4l-17.4,77h34.9
			L1552.4,52.4z"/>
		<path class="st2" d="M1692.3,147.5c0,19.9-12,29.8-35.9,29.8c-24,0-35.9-9.9-35.9-29.8v-18.1h14.9v18.9c0,5.1,1.8,9.1,5.3,11.9
			c3.5,2.8,8.8,4.3,15.7,4.3c6.9,0,12.2-1.4,15.7-4.3c3.5-2.8,5.3-6.7,5.3-11.6s-0.5-8.8-1.6-11.7c-1.1-2.9-3.2-6-6.5-9.3
			l-37.4-36.6c-4.4-4.4-7.4-8.7-9-12.9c-1.6-4.2-2.4-9.5-2.4-15.8c0-9.5,2.9-16.8,8.8-22c5.9-5.2,14.8-7.8,26.7-7.8
			c22.8,0,34.2,9.9,34.2,29.8v18.1h-14.9V61.5c0-5.1-1.7-9.1-5-11.9c-3.3-2.8-8.3-4.3-15-4.3c-6.7,0-11.7,1.4-15,4.3
			c-3.3,2.8-5,6.7-5,11.7c0,5,0.5,8.9,1.5,11.7c1,2.8,3.2,5.8,6.6,8.9l38.1,36.6c4.1,4.5,6.9,8.9,8.5,13.1
			C1691.5,135.8,1692.3,141.1,1692.3,147.5z"/>
		<path class="st2" d="M1745.5,174.1h-14.9V35.8h14.9v61.7h41.9V35.8h14.9v138.3h-14.9v-63.8h-41.9V174.1z"/>
	</g>
	<g id="lines-s">
		<g>
			<path class="st3" d="M878.9,218.8h0.6h0.6h0.6h0.6h0.6h0.6h0.6h0.6h0.6h0.6h0.6h0.6h0.6h0.6h0.6h0.6h0.6h0.6h0.6h0.6h0.6h0.6h0.6
				h0.6h0.6h0.6h0.6h0.6h0.6h0.6h0.6h0.6h0.6h0.6h0.6h0.6h0.6h0.6h0.6h0.6h0.6h0.6h0.6h0.6h0.6h0.6h0.6h0.6h0.6h0.6h0.6h0.6h0.6h0.6
				h0.6v0.6v0.6v0.6v0.6v0.6v0.6v0.6v0.6v0.6v0.6v0.6v0.6v0.6v0.6h-0.6h-0.6H911h-0.6h-0.6h-0.6h-2.6H906h-0.6h-0.5h-0.6h-0.6H903
				h-0.6h-0.6h-0.3h-0.6h-0.6h-0.6H899h-0.6h-0.6h-0.6h-0.6h-0.2h-0.6H895h-0.6h-0.6h-0.5h-0.6h-0.6h-0.6h-0.3h-0.6h-0.6h-0.6h-0.6
				H888h-0.6v0.6v0.6v0.6v0.6v0.6v0.6v0.6v0.6v0.6v0.6v0.6v0.6v0.6v0.6v0.6v0.6h0.6h0.6h0.6h0.6h0.6h0.6h0.6h0.6h0.6h0.6h0.6h0.6
				h0.6h0.6h0.6h0.6h0.6h0.6h0.6h0.6h0.6h0.6h0.6h0.6h0.6h0.6h0.6h0.6h0.6h0.6h0.6h0.6h0.6h0.6h0.6v0.6v0.6v0.6v0.6v0.6v0.6v0.6v0.6
				v0.6v0.6v0.6v0.6v0.6v0.6h-0.6h-0.6h-0.6h-0.6H906h-1.4h-0.6h-0.6h-0.6h-0.6h-0.6h-0.6h-0.4h-0.6h-0.6h-0.6h-0.6h-0.6h-0.6h-0.6
				h-0.6h-0.2h-0.6H894h-0.6h-0.6h-0.6h-0.6h-0.4h-0.6h-0.6h-0.6h-0.6H888h-0.6v0.6v0.6v0.5v0.6v0.6v0.6v0.6v0.6v0.5v0.6v0.6v0.6
				v0.6v0.6v0.5v0.6v0.6v0.6v0.6v0.6v0.5v0.6v0.6v0.6v0.6v0.6v0.5v0.6v0.6h-0.6h-0.6h-0.6h-0.6h-0.6h-0.6h-0.6h-0.6h-0.6h0h-0.6
				h-0.6H880h-0.6h-0.6v-0.6v-0.6v-0.6V261v-0.6v-0.6v-0.6v-0.6v-2.9V255v-0.6v-0.6v-0.6v-0.6v-0.6v-0.6v-0.6v-0.2V250v-0.6v-0.6
				v-0.6v-0.6v-0.6v-0.6v-0.6v-0.3v-0.6v-0.6v-0.6v-0.6v-0.6v-0.6V241v-0.6v-0.2v-0.6v-0.6v-0.6v-0.6v-0.6v-0.6v-0.6v-0.6v-0.6V234
				v-0.6v-0.6v-0.6v-0.6v-0.6v0v-0.6v-0.6v-0.5v-0.6v-0.6v-0.6v-0.6V226v-0.6v-0.6v-0.6v-0.6V223v-0.6v-0.6v-0.6v-0.6v0.1V220v-0.6
				v-0.5H878.9z"/>
			<path class="st3" d="M918.7,218.8h0.6h0.6h0.6h0.6h0.6h0.6h0.6h0.6h0.6h0.6h0.6h0.6h0.6h0.6h0.6h0.6h0.6h0.6h0.6h0.6h0.6h0.6h0.6
				h0.6h0.6h0.6h0.6h0.6h0.6h0.6h0.6h0.6h0.6h0.7l0.7,0.1h0.6l0.6,0.1l0.6,0.1l0.6,0.1l0.6,0.1l0.6,0.1l0.6,0.1l0.6,0.2l0.5,0.2
				l0.6,0.2l0.5,0.2l0.4,0.2l0.5,0.2l0.4,0.3l0.4,0.2l0.4,0.3l0.4,0.3l0.4,0.3l0.4,0.3l0.3,0.3l0.4,0.3l0.4,0.4l0.3,0.4l0.3,0.4
				l0.3,0.4l0.3,0.4l0.3,0.4l0.2,0.5l0.2,0.5l0.2,0.4l0.2,0.6l0.2,0.5l0.1,0.6l0.1,0.6l0.1,0.6l0.1,0.6l0.1,0.6l0.1,0.6v0.6v0.1v0.7
				l-0.1,0.6l-0.1,0.6l-0.1,0.6l-0.1,0.6l-0.1,0.6l-0.2,0.6l-0.2,0.5l-0.2,0.6l-0.2,0.5l-0.2,0.5l-0.2,0.4l-0.3,0.4l-0.3,0.4
				l-0.3,0.4l-0.3,0.4l-0.4,0.4l-0.4,0.4l-0.4,0.4l-0.4,0.3l-0.4,0.3l-0.4,0.3l-0.4,0.3l-0.5,0.3l-0.5,0.3l-0.5,0.3l-0.5,0.2
				l-0.6,0.2l-0.6,0.2l0.3,0.4l0.3,0.4l0.3,0.5l0.3,0.4l0.3,0.4l0.3,0.4l0.3,0.5l0.3,0.4l0.3,0.4l0.3,0.4l0.3,0.4l0.3,0.5l0.3,0.4
				l0.3,0.4l0.3,0.4l0.3,0.4l0.3,0.5l0.3,0.4l0.3,0.4l0.3,0.4l0.3,0.5l0.3,0.4l0.3,0.4l0.3,0.4l0.3,0.4l0.3,0.5l0.3,0.4l0.3,0.4
				l0.3,0.4l0.3,0.5l0.3,0.4l0.3,0.4H955h-0.6h-0.6h-0.6H952h-0.6h-0.6h-0.6h-0.6h-0.6h-0.6h-0.6H947h-0.2h-0.6h-0.6H945h-0.6
				l-0.3-0.4l-0.3-0.4l-0.3-0.5l-0.3-0.4l-0.3-0.4l-0.3-0.4l-0.3-0.4l-0.3-0.4l-0.3-0.5l-0.3-0.4l-0.3-0.4l-0.3-0.4l-0.3-0.4
				l-0.3-0.4l-0.3-0.5l-0.3-0.4l-0.3-0.4l-0.3-0.4l-0.3-0.4l-0.3-0.4l-0.3-0.5l-0.3-0.4l-0.3-0.4l-0.3-0.4l-0.3-0.4l-0.3-0.4
				l-0.3-0.5l-0.3-0.4l-0.3-0.4h-0.6h-0.6h-0.7h-0.6h-0.6h-0.6h-0.6h-0.6h-0.6h-0.4h-0.6H928h-0.6v0.6v0.6v0.6v0.5v0.6v0.6v0.6v0.6
				v0.6v0.6v0.6v0.5v0.6v0.6v0.6v0.6v0.6v0.6v0.6v0.5v0.6v0.6v0.6v0.6h-0.6h-0.6h-0.6h-0.4h-0.6h-0.6h-0.6h-0.6h-0.6h-0.6H921h-0.6
				h-0.6h-0.6h-0.6v-0.6v-0.6v-0.6v-0.6v-0.6v-0.6V257v-0.6v-0.7V255v-0.6v-0.6v-0.6v-0.6v-0.6v-0.6v-0.6v-0.2V250v-0.6v-0.6v-0.6
				v-0.6v-0.6v-0.6v-0.6v-0.3v-0.6v-0.6v-0.6v-0.6v-0.6v-0.6V241v-0.6v-0.2v-0.6v-0.6v-0.6v-0.6v-0.6v-0.6v-0.6v-0.6v-0.6V234v-0.6
				v-0.6v-0.6v-0.6v-0.6v0v-0.6v-0.6v-0.5v-0.6v-0.6v-0.6v-0.6V226v-0.6v-0.6v-0.6v-0.6V223v-0.6v-0.6v-0.6v-0.6v0.1V220v-0.6v-0.5
				H918.7z M937.2,239.2h0.7l0.6-0.1l0.6-0.1l0.6-0.1l0.6-0.1l0.5-0.2l0.4-0.2l0.4-0.3l0.4-0.3l0.4-0.3l0.4-0.3l0.3-0.4l0.3-0.4
				l0.3-0.4l0.2-0.5l0.2-0.5l0.1-0.6l0.1-0.6v-0.6V233v-0.6l-0.1-0.6l-0.1-0.6l-0.2-0.6l-0.2-0.5l-0.3-0.4l-0.3-0.4l-0.4-0.4
				l-0.4-0.3l-0.4-0.3l-0.4-0.3l-0.4-0.2l-0.5-0.2l-0.5-0.2l-0.6-0.2l-0.6-0.1l-0.6-0.1l-0.6-0.1H937h-0.6h-0.5h-0.6h-0.6H934h-0.5
				h-0.6h-0.6h-0.5h-0.4h-0.6h-0.4h-0.6h-0.6h-0.6h-0.5h-0.6v0.6v0.6v0.5v0.6v0.6v0.6v0.6v0.6v0.5v0.6v0.6v0.6v0.6v0.5v0.6v0.6v0.6
				v0.6v0.6v0.5v0.6v0.6h0.6h0.6h0.6h0.6h0.5h0.6h0.6h0.6h0.6h0.6h0.6h0.6h0.5h0.6h0.6h0.6h0.2V239.2z"/>
			<path class="st3" d="M982.8,261.5h-0.6h-0.6l-0.6-0.1l-0.6-0.1l-0.6-0.1l-0.6-0.1l-0.6-0.1l-0.6-0.1l-0.5-0.1l-0.6-0.2l-0.5-0.1
				l-0.5-0.2l-0.6-0.1l-0.5-0.2l-0.5-0.2l-0.4-0.2l-0.6-0.2l-0.5-0.2l-0.5-0.2l-0.5-0.3l-0.4-0.3l-0.5-0.2l-0.4-0.3l-0.4-0.3
				l-0.4-0.3l-0.4-0.3l-0.4-0.2l-0.4-0.3l-0.4-0.3l-0.4-0.4l-0.3-0.4l-0.4-0.4l-0.4-0.4l-0.4-0.4l-0.3-0.4l-0.3-0.4l-0.3-0.4
				l-0.3-0.4l-0.3-0.5l-0.3-0.5l-0.3-0.5l-0.3-0.5l-0.3-0.5l-0.2-0.5l-0.4-0.8l-0.2-0.5l-0.2-0.5l-0.2-0.6l-0.2-0.5l-0.1-0.5
				l-0.2-0.6l-0.1-0.6l-0.1-0.5l-0.1-0.6l-0.1-0.6l-0.1-0.6l-0.1-0.6v-0.3l-0.1-0.6V240v-0.1v-0.6l0.1-0.6v-0.5l0.1-0.6l0.1-0.6
				l0.1-0.6l0.1-0.6l0.1-0.6l0.1-0.5l0.2-0.6l0.2-0.5l0.2-0.6l0.2-0.5l0.2-0.5l0.2-0.6l0.2-0.5l0.2-0.4l0.3-0.5l0.2-0.5l0.3-0.4
				l0.3-0.5l0.3-0.4l0.3-0.4l0.3-0.4l0.3-0.4l0.3-0.4l0.3-0.4l0.3-0.4l0.4-0.4l0.4-0.4l0.3-0.4l0.4-0.3l0.4-0.4l0.4-0.3l0.4-0.3
				l0.4-0.3l0.4-0.3l0.4-0.3l0.4-0.3l0.5-0.3l0.5-0.3l0.4-0.2l0.5-0.3l0.6-0.2l0.5-0.2l0.5-0.2l0.5-0.2l0.5-0.2l0.5-0.2l0.6-0.2
				l0.5-0.1l0.6-0.2l0.5-0.1l0.6-0.1l0.6-0.1l0.6-0.1l0.6-0.1l0.6-0.1l0.6-0.1h0.6h0.6h0.6h0.6l0.6,0.1l0.6,0.1l0.6,0.1l0.6,0.1
				l0.6,0.1l0.6,0.1l0.5,0.1l0.6,0.2l0.5,0.1l0.5,0.2l0.6,0.1l0.5,0.2l0.5,0.2l0.5,0.2l0.5,0.3l0.5,0.2l0.5,0.2l0.5,0.3l0.4,0.2
				l0.5,0.3l0.4,0.3l0.4,0.3l0.4,0.3l0.4,0.3l0.4,0.3l0.4,0.3l0.4,0.3l0.4,0.4l0.4,0.3l0.4,0.4l0.4,0.4l0.4,0.4l0.3,0.4l0.3,0.4
				l0.3,0.4l0.3,0.4l0.3,0.5l0.3,0.5l0.3,0.5l0.3,0.5l0.3,0.5l0.2,0.5l0.3,0.6l0.2,0.5l0.2,0.5l0.2,0.6l0.2,0.5l0.1,0.5l0.2,0.6
				l0.1,0.6l0.1,0.5l0.1,0.6l0.1,0.6l0.1,0.6l0.1,0.6v0.6l0.1,0.6v0.6v0.1v0.6l-0.1,0.6v0.6l-0.1,0.6l-0.1,0.6l-0.1,0.6l-0.1,0.6
				l-0.1,0.6l-0.1,0.5l-0.2,0.6l-0.2,0.5l-0.2,0.6l-0.2,0.5l-0.2,0.5l-0.2,0.5l-0.2,0.6l-0.2,0.4l-0.2,0.5l-0.3,0.5l-0.3,0.4
				l-0.3,0.4l-0.3,0.5l-0.3,0.4l-0.3,0.4l-0.3,0.4l-0.3,0.4l-0.3,0.4l-0.3,0.4l-0.4,0.4l-0.3,0.4l-0.4,0.4l-0.4,0.3l-0.4,0.4
				l-0.4,0.3l-0.4,0.3l-0.4,0.3l-0.4,0.3l-0.4,0.3l-0.4,0.3l-0.5,0.3l-0.5,0.3l-0.4,0.2l-0.5,0.3l-0.6,0.2l-0.5,0.2l-0.5,0.2
				l-0.5,0.2l-0.5,0.2l-0.5,0.2l-0.6,0.2l-0.5,0.1l-0.6,0.2l-0.5,0.1l-0.6,0.1l-0.6,0.1l-0.6,0.1l-0.6,0.1l-0.6,0.1l-0.6,0.1h-0.6
				h-0.6V261.5z M982.9,253.4h0.6l0.6-0.1l0.6-0.1l0.6-0.1l0.6-0.1l0.6-0.1l0.6-0.2l0.5-0.2l0.6-0.2l0.5-0.2l0.4-0.2l0.5-0.3
				l0.4-0.3l0.4-0.3l0.4-0.3l0.4-0.3l0.4-0.4l0.4-0.4l0.3-0.4l0.3-0.4l0.3-0.4l0.3-0.4l0.3-0.4l0.3-0.4l0.3-0.5l0.2-0.5l0.2-0.6
				l0.2-0.5l0.2-0.6l0.2-0.5l0.1-0.6l0.1-0.6l0.1-0.6l0.1-0.6l0.1-0.6V240v-0.1v-0.6l-0.1-0.6l-0.1-0.6l-0.1-0.6l-0.1-0.6l-0.2-0.6
				l-0.1-0.5l-0.2-0.6l-0.2-0.6l-0.2-0.5l-0.2-0.5l-0.3-0.5l-0.3-0.4l-0.3-0.5l-0.3-0.4l-0.3-0.4l-0.3-0.4l-0.4-0.4l-0.4-0.4
				l-0.4-0.3l-0.4-0.4l-0.4-0.3l-0.4-0.3l-0.4-0.3l-0.5-0.3l-0.4-0.2l-0.5-0.3l-0.6-0.2l-0.5-0.2l-0.6-0.2l-0.6-0.1l-0.6-0.1
				l-0.6-0.1l-0.6-0.1l-0.6-0.1h-0.6h-0.6l-0.6,0.1l-0.6,0.1l-0.6,0.1l-0.6,0.1l-0.6,0.1l-0.5,0.2l-0.6,0.2l-0.5,0.2l-0.5,0.3
				l-0.5,0.2l-0.4,0.3l-0.4,0.3l-0.4,0.3l-0.4,0.3l-0.4,0.3l-0.4,0.4l-0.3,0.3l-0.4,0.4l-0.3,0.4l-0.3,0.4l-0.3,0.4l-0.3,0.4
				l-0.4,0.7l-0.3,0.5L971,234l-0.2,0.5l-0.2,0.6l-0.2,0.6l-0.2,0.5l-0.1,0.6l-0.1,0.6l-0.1,0.6l-0.1,0.6l-0.1,0.6v0.6v0.1v0.6
				l0.1,0.6l0.1,0.6l0.1,0.6l0.1,0.6l0.1,0.6l0.2,0.5l0.2,0.6l0.2,0.5l0.2,0.6l0.3,0.5l0.2,0.5l0.3,0.4l0.3,0.5l0.3,0.4l0.3,0.4
				l0.4,0.4l0.3,0.4l0.4,0.4l0.4,0.3l0.4,0.4l0.4,0.3l0.4,0.3l0.4,0.3l0.5,0.3l0.4,0.2l0.6,0.2l0.5,0.2l0.5,0.2l0.6,0.2l0.6,0.1
				l0.6,0.1l0.6,0.1l0.6,0.1l0.6,0.1h0.6V253.4z"/>
			<path class="st3" d="M1013.9,218.8h0.6h0.6h0.6h0.6h0.6h0.6h0.6h0.6h0.6h0.6h0.6h0.6h0.6h0.6l0.3,0.4l0.3,0.4l0.3,0.4l0.3,0.4
				l0.3,0.4l0.3,0.4l0.3,0.4l0.3,0.4l0.3,0.4l0.4,0.4l0.3,0.4l0.3,0.4l0.3,0.4l0.3,0.4l0.3,0.4l0.3,0.4l0.3,0.4l0.3,0.4l0.3,0.4
				l0.3,0.4l0.3,0.4l0.3,0.4l0.3,0.4l0.3,0.4l0.3,0.4l0.3,0.4l0.3,0.4l0.3,0.4l0.4,0.4l0.3,0.4l0.3,0.4l0.3,0.4l0.3,0.4l0.3,0.4
				l0.3,0.4l0.3,0.4l0.3,0.4l0.3,0.4l0.3,0.4l0.3,0.4l0.3,0.4l0.3,0.4l0.3,0.4l0.3,0.4l0.3,0.4l0.3,0.4l0.3,0.4l0.3,0.4l0.4,0.4
				l0.3,0.4l0.3,0.4l0.3,0.4l0.3,0.4l0.3,0.4l0.3,0.4l0.3,0.4l0.3,0.4l0.3,0.4v-0.6v-0.6v-0.6v-0.6v-0.6V239v-0.6v-0.6v2.4v-0.6
				v-0.6v-0.6v-0.6v-0.6v-0.6v-0.6v-0.6v-0.6V234v-0.6v-0.6v-0.6v-0.6V231v-0.6v-0.6v0.1v-0.6v-0.6V228v-0.6v-0.6v-0.6v-0.6v-0.6
				v-0.6v-0.6v-0.6v-0.6v-0.6v-0.6v-0.6v0V220v-0.6v-0.6h0.6h0.6h0.6h0.6h0.6h0.6h0.6h0.6h0.6h0.6h0.6h0.6h0.6h0.6h0.6v0.6v0.6v0.6
				v0.6v0.6v0.6v0.6v0.6v0.6v0.6v0.6v0.6v0.6v0.6v0.6v0.6v0.6v0.6v0.5v0.6v0.6v0.6v0.6v0.6v0.6v0.6v0.6v0.6v0.6v0.6v0.6v0.6v0.6v0.6
				v0.6v0.6v0.6v0.6v0.6v0.6v0.6v0.6v0.6v0.6v0.6v0.6v0.6v0.6v0.6v0.6v0.6v0.6v0.6v0.6v0.5v0.6v0.6v0.6v0.6v0.6v0.6v0.6v0.6v0.6v0.6
				v0.6v0.6v0.6v0.6v0.6v0.6v0.6v0.6h-0.6h-0.6h-0.6h-0.6h-0.6h-0.6h-0.6h-0.6h-0.6h-0.6h-0.6h-0.6h-0.6l-0.3-0.4l-0.3-0.4l-0.3-0.4
				l-0.3-0.4l-0.3-0.4l-0.3-0.4l-0.3-0.4l-0.3-0.4l-0.3-0.4l-0.3-0.4l-0.3-0.4l-0.3-0.4l-0.3-0.4l-0.3-0.4l-0.3-0.4l-0.4-0.4
				l-0.3-0.4l-0.3-0.4l-0.3-0.4l-0.3-0.4l-0.3-0.4l-0.3-0.4l-0.3-0.4l-0.3-0.4l-0.3-0.4l-0.3-0.4l-0.3-0.4l-0.3-0.4l-0.3-0.4
				l-0.3-0.4l-0.3-0.4l-0.3-0.4l-0.3-0.4l-0.3-0.4l-0.3-0.4l-0.3-0.4l-0.3-0.4l-0.3-0.4l-0.3-0.4l-0.3-0.4l-0.3-0.4l-0.3-0.4
				l-0.3-0.4l-0.3-0.4l-0.3-0.4l-0.4-0.4l-0.3-0.4l-0.3-0.4l-0.3-0.4l-0.3-0.4l-0.3-0.4l-0.3-0.4l-0.3-0.4l-0.3-0.4l-0.3-0.4
				l-0.3-0.4l-0.3-0.4l-0.3-0.4l-0.3-0.4l-0.3-0.4v0.6v0.6v0.6v0.6v0.6v0.6v0.6v0.6v0.6v0.6v0.6v0.6v0.6v0.6v0.6v0.6v0.6v0.6v0.6
				v0.6v0.6v0.6v0.6v0.6v0.6v0.6v0.6v0.6v0.6v0.6v0.6v0.6v0.6v0.6v0.6v0.6v0.6v0.6v0.6v0.6v0.6v0.6v0.6v0.6v0.6v0.6v0.6h-0.6h-0.6
				h-0.6h-0.6h-0.6h-0.6h-0.6h-0.6h-0.6h-0.6h-0.6h-0.6h-0.6h-0.6h-0.6v-0.6v-0.6v-0.6v-0.6v-0.6v-0.6v-0.6v-0.6v-7.4V255v-0.6v-0.6
				v-0.6v-0.6v-0.6v-0.6v-0.6v-0.2V250v-0.6v-0.6v-0.6v-0.6v-0.6v-0.6v-0.6v-0.3v-0.6v-0.6v-0.6v-0.6v-0.6v-0.6V241v-0.6v-0.2v-0.6
				v-0.6v-0.6v-0.6v-0.6v-0.6v-0.6v-0.6v-0.6V234v-0.6v-0.6v-0.6v-0.6v-0.6v0v-0.6v-0.6v-0.5v-0.6v-0.6v-0.6v-0.6V226v-0.6v-0.6
				v-0.6v-0.6V223v-0.6v-0.6v-0.6v-0.6v0.1V220v-0.6v-0.5H1013.9z"/>
			<path class="st3" d="M1071.7,227.1h-0.6h-0.6h-0.6h-0.6h-0.6h-0.6h-0.6h-0.6h-0.6h-0.6h-0.6h-0.6h-0.6h-0.6h-0.6h-0.6h-0.6h-0.6
				h-0.6h-0.6h-0.6h-0.6v-0.6v-0.6v-0.6v-0.5v-0.6v-0.6v-0.6v-0.6v-0.6V221v-0.4V220v-0.6v-0.6h0.6h0.6h0.6h0.6h0.6h0.6h0.6h0.6h0.6
				h0.6h0.6h0.6h0.6h0.6h0.6h0.6h0.6h0.6h0.6h0.6h0.6h0.6h0.6h0.6h0.6h0.6h0.6h0.6h0.6h0.6h0.6h0.6h0.6h0.6h0.6h0.6h0.6h0.6h0.6h0.6
				h0.6h0.6h0.6h0.6h0.6h0.6h0.6h0.6h0.6h0.6h0.6h0.6h0.6h0.6h0.6h0.6h0.6h0.6h0.6h0.6v0.6v0.6v0.6v0.6v0.6v0.6v0.6v0.6v0.6v0.6v0.6
				v0.6v0.6v0.6h-0.6h-0.6h-0.6h-0.6h-0.6h-0.6h-0.6h-0.6h-0.6h-0.6h-0.6h-0.6h-0.6h-0.6h-0.6h-0.6h-0.6h-0.6h-0.6h-0.6h-0.6h-0.6
				v0.6v0.6v0.6v0.6v0.6v0.6v0.6v0.5v0.6v0.6v0.6v0.6v0.6v0.6v0.6v0.6v0.6v0.6v0.6v0.6v0.6v0.6v0.5v0.6v0.6v0.6v0.6v0.6v0.6v0.6v0.6
				v0.6v0.6v0.6v0.6v0.6v0.5v0.6v0.6v0.6v0.6v0.6v0.6v0.6v0.6v0.6v0.6v0.6v0.6v0.6v0.6v0.5v0.6v0.6v0.6v0.6v0.6v0.6v0.6h-0.6h-0.6
				h-0.6h-0.6h-0.6h-0.6h-0.6h-0.6h-0.6h-0.6h-0.6h-0.6h-0.6h-0.6h-0.6v-0.6v-0.6v-0.6V261v-0.6v-0.6v-0.6v-0.5V258v-0.6v-2.8V254
				v-0.6v-0.6v-0.6v-0.6v-0.6v-0.6v-0.6V249v-0.6v-0.6v-0.5v-0.6v-0.6v-0.6v-0.6v-0.6v0.1v-0.6v-0.6v-0.6v-0.6v-0.6v-0.6v-0.4v-0.5
				v-0.5v-0.6v-0.6v-0.6v-0.6v-0.6v-0.6v-0.6v-0.6v-0.6V233v-0.6v-0.6v-0.6v-0.5V230v-0.6v-0.6v0.1v-0.6v-0.6v-0.5H1071.7z"/>
			<path class="st3" d="M1101.1,218.8h0.6h0.6h0.6h0.6h0.6h0.6h0.6h0.6h0.6h0.5h0.6h0.6h0.6h0.6h0.6h0.6h0.6h0.6h0.6h0.6h0.6h0.6
				h0.6h0.6h0.6h0.6h0.6h0.5h0.6h0.6h0.6h0.6h0.6h0.6h0.6h0.6h0.6h0.6h0.6h0.6h0.6h0.6h0.6h0.6h0.6h0.5h0.6h0.6h0.6h0.6h0.6h0.6h0.6
				h0.6h0.6v0.6v0.6v0.5v0.6v0.6v0.6v0.5v0.6v0.6v0.6v0.6v0.5v0.6v0.6h-0.6h-0.6h-0.6h-0.5h-0.6h-0.6h-0.6h-0.6h-0.6h-0.6h-0.6h-0.5
				h-0.6h-0.6h-0.6h-0.6h-0.6h-0.6h-0.6h-0.5h-0.6h-0.6h-0.6h-0.6h-0.6h-0.6h-0.6h-0.5h-0.6h-0.6h-0.6h-0.6h-0.6h-0.6h-0.6h-0.5
				h-0.6h-0.6h-0.6h-0.6v0.6v0.5v0.6v0.6v0.6v0.5v0.6v0.6v0.6v0.5v0.6v0.6v0.6v0.5v0.6v0.6h0.6h0.6h0.6h0.6h0.6h0.6h0.6h0.6h0.5h0.6
				h0.6h0.6h0.6h0.6h0.6h0.6h0.6h0.6h0.6h0.6h0.6h0.6h0.6h0.6h0.6h0.6h0.5h0.6h0.6h0.6h0.6h0.6h0.6h0.6h0.6v0.6v0.6v0.5v0.6v0.6v0.6
				v0.5v0.6v0.6v0.6v0.6v0.5v0.6v0.6h-0.6h-0.6h-0.6h-0.6h-0.6h-0.6h-0.6h-0.6h-0.5h-0.6h-0.6h-0.6h-0.6h-0.6h-0.6h-0.6h-0.6h-0.6
				h-0.6h-0.6h-0.6h-0.6h-0.6h-0.6h-0.6h-0.6h-0.5h-0.6h-0.6h-0.6h-0.6h-0.6h-0.6h-0.6h-0.6v0.6v0.6v0.6v0.6v0.6v0.6v0.6v0.6v0.6
				v0.6v0.6v0.6v0.6v0.6v0.6v0.6h0.6h0.6h0.6h0.6h0.6h0.6h0.6h0.6h0.6h0.6h0.6h0.6h0.6h0.6h0.6h0.6h0.6h0.6h0.6h0.6h0.6h0.6h0.6h0.6
				h0.6h0.6h0.6h0.6h0.6h0.6h0.6h0.6h0.6h0.6h0.6h0.6h0.6h0.6h0.6h0.6v0.6v0.6v0.5v0.6v0.6v0.6v0.5v0.6v0.6v0.6v0.6v0.5v0.6v0.6
				h-0.6h-0.6h-0.6h-0.6h-0.6h-0.6h-0.6h-0.6h-0.6h-0.6h-0.6h-0.6h-0.6h-0.6h-0.6h-0.6h-0.6h-0.6h-0.6h-0.6h-0.6h-0.6h-0.6h-0.6
				h-0.6h-0.6h-0.6h-0.6h-0.6h-0.6h-0.6h-0.6h-0.6h-0.6h-0.6h-0.6h-0.6h-0.6h-0.6h-0.6h-0.6h-0.6h-0.6h-0.6h-0.6h-0.6h-0.6h-0.6
				h-0.6h-0.6h-0.6h-0.6h-0.6h-0.6h-0.6v-0.6V262v-0.6v-0.6v-0.6v-0.6v-0.6v-0.6v-2.7V255v-0.6v-0.6v-0.6v-0.6v-0.6v-0.6v-0.6v-0.2
				V250v-0.6v-0.6v-0.6v-0.6v-0.6v-0.6v-0.6v-0.3v-0.6v-0.6v-0.6v-0.6v-0.6v-0.6V241v-0.6v-0.2v-0.6v-0.6v-0.6v-0.6v-0.6v-0.6v-0.6
				v-0.6v-0.6V234v-0.6v-0.6v-0.6v-0.6v-0.6v0v-0.6v-0.6v-0.5v-0.6v-0.6v-0.6v-0.6V226v-0.6v-0.6v-0.6v-0.6V223v-0.6v-0.6v-0.6v-0.6
				v0.1V220v-0.6v-0.5H1101.1z"/>
			<path class="st3" d="M1141.8,218.8h0.6h0.6h0.6h0.6h0.6h0.6h0.6h0.6h0.6h0.6h0.6h0.6h0.6h0.6l0.3,0.4l0.3,0.4l0.3,0.4l0.3,0.4
				l0.3,0.4l0.3,0.4l0.3,0.4l0.3,0.4l0.3,0.4l0.4,0.4l0.3,0.4l0.3,0.4l0.3,0.4l0.3,0.4l0.3,0.4l0.3,0.4l0.3,0.4l0.3,0.4l0.3,0.4
				l0.3,0.4l0.3,0.4l0.3,0.4l0.3,0.4l0.3,0.4l0.3,0.4l0.3,0.4l0.3,0.4l0.3,0.4l0.4,0.4l0.3,0.4l0.3,0.4l0.3,0.4l0.3,0.4l0.3,0.4
				l0.3,0.4l0.3,0.4l0.3,0.4l0.3,0.4l0.3,0.4l0.3,0.4l0.3,0.4l0.3,0.4l0.3,0.4l0.3,0.4l0.3,0.4l0.3,0.4l0.3,0.4l0.3,0.4l0.4,0.4
				l0.3,0.4l0.3,0.4l0.3,0.4l0.3,0.4l0.3,0.4l0.3,0.4l0.3,0.4l0.3,0.4l0.3,0.4v-0.6v-0.6v-0.6v-0.6v-0.6V239v-0.6v-0.6v2.4v-0.6
				v-0.6v-0.6v-0.6v-0.6v-0.6v-0.6v-0.6v-0.6V234v-0.6v-0.6v-0.6v-0.6V231v-0.6v-0.6v0.1v-0.6v-0.6V228v-0.6v-0.6v-0.6v-0.6v-0.6
				v-0.6v-0.6v-0.6v-0.6v-0.6v-0.6v-0.6v0V220v-0.6v-0.6h0.6h0.6h0.6h0.6h0.6h0.6h0.6h0.6h0.6h0.6h0.6h0.6h0.6h0.6h0.6v0.6v0.6v0.6
				v0.6v0.6v0.6v0.6v0.6v0.6v0.6v0.6v0.6v0.6v0.6v0.6v0.6v0.6v0.6v0.5v0.6v0.6v0.6v0.6v0.6v0.6v0.6v0.6v0.6v0.6v0.6v0.6v0.6v0.6v0.6
				v0.6v0.6v0.6v0.6v0.6v0.6v0.6v0.6v0.6v0.6v0.6v0.6v0.6v0.6v0.6v0.6v0.6v0.6v0.6v0.6v0.5v0.6v0.6v0.6v0.6v0.6v0.6v0.6v0.6v0.6v0.6
				v0.6v0.6v0.6v0.6v0.6v0.6v0.6v0.6h-0.6h-0.6h-0.6h-0.6h-0.6h-0.6h-0.6h-0.6h-0.6h-0.6h-0.6h-0.6h-0.6l-0.3-0.4l-0.3-0.4l-0.3-0.4
				l-0.3-0.4l-0.3-0.4l-0.3-0.4l-0.3-0.4l-0.3-0.4l-0.3-0.4l-0.3-0.4l-0.3-0.4l-0.3-0.4l-0.3-0.4l-0.3-0.4l-0.3-0.4l-0.4-0.4
				l-0.3-0.4l-0.3-0.4l-0.3-0.4l-0.3-0.4l-0.3-0.4l-0.3-0.4l-0.3-0.4l-0.3-0.4l-0.3-0.4l-0.3-0.4l-0.3-0.4l-0.3-0.4l-0.3-0.4
				l-0.3-0.4l-0.3-0.4l-0.3-0.4l-0.3-0.4l-0.3-0.4l-0.3-0.4l-0.3-0.4l-0.3-0.4l-0.3-0.4l-0.3-0.4l-0.3-0.4l-0.3-0.4l-0.3-0.4
				l-0.3-0.4l-0.3-0.4l-0.3-0.4l-0.4-0.4l-0.3-0.4l-0.3-0.4l-0.3-0.4l-0.3-0.4l-0.3-0.4l-0.3-0.4l-0.3-0.4l-0.3-0.4l-0.3-0.4
				l-0.3-0.4l-0.3-0.4l-0.3-0.4l-0.3-0.4l-0.3-0.4v0.6v0.6v0.6v0.6v0.6v0.6v0.6v0.6v0.6v0.6v0.6v0.6v0.6v0.6v0.6v0.6v0.6v0.6v0.6
				v0.6v0.6v0.6v0.6v0.6v0.6v0.6v0.6v0.6v0.6v0.6v0.6v0.6v0.6v0.6v0.6v0.6v0.6v0.6v0.6v0.6v0.6v0.6v0.6v0.6v0.6v0.6v0.6h-0.6h-0.6
				h-0.6h-0.6h-0.6h-0.6h-0.6h-0.6h-0.6h-0.6h-0.6h-0.6h-0.6h-0.6h-0.6v-0.6v-0.6v-0.6v-0.6v-0.6v-0.6v-0.6v-0.6v-7.4V255v-0.6v-0.6
				v-0.6v-0.6v-0.6v-0.6v-0.6v-0.2V250v-0.6v-0.6v-0.6v-0.6v-0.6v-0.6v-0.6v-0.3v-0.6v-0.6v-0.6v-0.6v-0.6v-0.6V241v-0.6v-0.2v-0.6
				v-0.6v-0.6v-0.6v-0.6v-0.6v-0.6v-0.6v-0.6V234v-0.6v-0.6v-0.6v-0.6v-0.6v0v-0.6v-0.6v-0.5v-0.6v-0.6v-0.6v-0.6V226v-0.6v-0.6
				v-0.6v-0.6V223v-0.6v-0.6v-0.6v-0.6v0.1V220v-0.6v-0.5H1141.8z"/>
			<path class="st3" d="M1189.7,218.8h0.6h0.6h0.6h0.6h0.6h0.6h0.6h0.6h0.6h0.6h0.6h0.6h0.6h0.6h0.6h0.6h0.6h0.6h0.6h0.6h0.6h0.6
				h0.6h0.6h0.6h0.6h0.6h0.6h0.6h0.6l0.6,0.1l0.6,0.1l0.6,0.1l0.6,0.1l0.6,0.1l0.6,0.1l0.6,0.1l0.6,0.1l0.5,0.1l0.6,0.1l0.5,0.2
				l0.5,0.2l0.5,0.2l0.5,0.2l0.6,0.3l0.6,0.2l0.6,0.2l0.5,0.3l0.5,0.3l0.5,0.3l0.5,0.3l0.5,0.3l0.4,0.3l0.4,0.3l0.4,0.3l0.4,0.3
				l0.4,0.4l0.4,0.4l0.4,0.4l0.4,0.4l0.4,0.4l0.3,0.4l0.4,0.4l0.3,0.4l0.3,0.4l0.3,0.5l0.3,0.4l0.3,0.5l0.3,0.4l0.3,0.5l0.2,0.6
				l0.3,0.5l0.2,0.5l0.2,0.5l0.2,0.5l0.2,0.5l0.1,0.5l0.2,0.6l0.1,0.5l0.1,0.6l0.1,0.5l0.1,0.6l0.1,0.6l0.1,0.6v0.6l0.1,0.6v0.6v0.1
				v0.6l-0.1,0.6v0.6l-0.1,0.6l-0.1,0.6l-0.1,0.6l-0.1,0.6l-0.1,0.5l-0.1,0.6l-0.2,0.5l-0.1,0.5l-0.2,0.5l-0.2,0.6l-0.2,0.5
				l-0.2,0.4l-0.3,0.6l-0.2,0.5l-0.3,0.5l-0.3,0.5l-0.3,0.5l-0.3,0.4l-0.3,0.5l-0.3,0.4l-0.3,0.4l-0.4,0.4l-0.3,0.4l-0.4,0.4
				l-0.4,0.4l-0.4,0.4l-0.4,0.3l-0.4,0.4l-0.4,0.3l-0.4,0.3l-0.4,0.3l-0.4,0.3l-0.4,0.3l-0.4,0.3l-0.4,0.3l-0.5,0.3l-0.5,0.3
				l-0.4,0.2l-0.5,0.2l-0.6,0.2l-0.5,0.2l-0.5,0.2l-0.5,0.2l-0.5,0.2l-0.5,0.1l-0.6,0.2l-0.5,0.1l-0.6,0.1l-0.6,0.1l-0.6,0.1
				l-0.6,0.1l-0.6,0.1l-0.6,0.1l-0.6,0.1l-0.6,0.1h-0.6h-0.6h-0.6h-0.6h-0.6h-0.6h-0.6h-0.6h-0.6h-0.6h-0.6h-0.6h-0.6h-0.6h-0.6
				h-0.6h-0.6h-0.6h-0.6h-0.6h-0.6h-0.6h-0.6h-0.6h-0.6h-0.6h-0.6h-0.6h-0.6h-0.6v-0.6v-0.6v-0.6v-0.6v-0.6v-0.6V257v-0.6v-0.7V255
				v-0.6v-0.6v-0.6v-0.6v-0.6v-0.6v-0.6v-0.2V250v-0.6v-0.6v-0.6v-0.6v-0.6v-0.6v-0.6v-0.3v-0.6v-0.6v-0.6v-0.6v-0.6v-0.6V241v-0.6
				v-0.2v-0.6v-0.6v-0.6v-0.6v-0.6v-0.6v-0.6v-0.6v-0.6V234v-0.6v-0.6v-0.6v-0.6v-0.6v0v-0.6v-0.6v-0.5v-0.6v-0.6v-0.6v-0.6V226
				v-0.6v-0.6v-0.6v-0.6V223v-0.6v-0.6v-0.6v-0.6v0.1V220v-0.6v-0.5H1189.7z M1198.4,226.9v0.6v0.6v0.6v0.6v0.6v0.6v0.6v0.6v0.6v0.6
				v0.6v0.6v0.6v0.6v0.6v0.6v0.6v0.6v0.6v0.6v0.6v0.6v0.6v0.6v0.6v0.6v0.6v0.6v0.6v0.6v0.6v0.6v0.6v0.6v0.6v0.6v0.6v0.6v0.6v0.6v0.6
				v0.6v0.6v0.6v0.6h0.6h0.6h0.6h0.5h0.6h0.6h0.6h0.6h0.6h0.5h0.6h0.6h0.6h0.6l0.6-0.1l0.6-0.1l0.6-0.1l0.6-0.1l0.6-0.1l0.6-0.2
				l0.5-0.2l0.6-0.2l0.6-0.2l0.6-0.3l0.5-0.3l0.5-0.3l0.5-0.3l0.4-0.3l0.4-0.4l0.4-0.4l0.4-0.4l0.3-0.4l0.4-0.4l0.3-0.5l0.3-0.5
				l0.3-0.5l0.3-0.6l0.3-0.6l0.2-0.5l0.2-0.6l0.2-0.5l0.1-0.6l0.1-0.6l0.1-0.6l0.1-0.6l0.1-0.6v-0.6v-0.1v-0.6l-0.1-0.6l-0.1-0.6
				l-0.1-0.6l-0.1-0.6l-0.1-0.6l-0.2-0.6l-0.2-0.5l-0.2-0.6l-0.2-0.5l-0.2-0.4l-0.3-0.5l-0.3-0.4l-0.3-0.4l-0.3-0.4l-0.3-0.4
				l-0.3-0.4l-0.3-0.4l-0.4-0.4l-0.4-0.3l-0.4-0.3l-0.4-0.3l-0.4-0.3l-0.4-0.3l-0.5-0.3l-0.4-0.2l-0.5-0.2l-0.6-0.2l-0.5-0.2
				l-0.6-0.2l-0.6-0.1l-0.6-0.1l-0.6-0.1l-0.6-0.1l-0.6-0.1h-0.6h-0.6h-0.6h-0.6h-0.5h-0.6h-0.6h-0.6h-0.6h-0.6h-0.5h-0.6h-0.6h-0.8
				V226.9z"/>
			<path class="st3" d="M1255.5,218.8h0.6h0.6h0.6h0.6h0.6h0.6h0.6h0.6h0.6h0.6h0.6h0.6h0.6h0.6h0.6h0.6h0.6h0.6h0.6h0.6h0.6h0.6
				h0.6h0.6h0.6h0.6h0.6h0.6h0.6h0.6l0.6,0.1l0.6,0.1l0.6,0.1l0.6,0.1l0.6,0.1l0.6,0.1l0.6,0.1l0.6,0.1l0.5,0.1l0.6,0.1l0.5,0.2
				l0.5,0.2l0.5,0.2l0.5,0.2l0.6,0.3l0.6,0.2l0.6,0.2l0.5,0.3l0.5,0.3l0.5,0.3l0.5,0.3l0.5,0.3l0.4,0.3l0.4,0.3l0.4,0.3l0.4,0.3
				l0.4,0.4l0.4,0.4l0.4,0.4l0.4,0.4l0.4,0.4l0.3,0.4l0.4,0.4l0.3,0.4l0.3,0.4l0.3,0.5l0.3,0.4l0.3,0.5l0.3,0.4l0.3,0.5l0.2,0.6
				l0.3,0.5l0.2,0.5l0.2,0.5l0.2,0.5l0.2,0.5l0.1,0.5l0.2,0.6l0.1,0.5l0.1,0.6l0.1,0.5l0.1,0.6l0.1,0.6l0.1,0.6v0.6l0.1,0.6v0.6v0.1
				v0.6l-0.1,0.6v0.6l-0.1,0.6l-0.1,0.6l-0.1,0.6l-0.1,0.6l-0.1,0.5l-0.1,0.6l-0.2,0.5l-0.1,0.5l-0.2,0.5l-0.2,0.6l-0.2,0.5
				l-0.2,0.4l-0.3,0.6l-0.2,0.5l-0.3,0.5l-0.3,0.5l-0.3,0.5l-0.3,0.4l-0.3,0.5l-0.3,0.4l-0.3,0.4l-0.4,0.4l-0.3,0.4l-0.4,0.4
				l-0.4,0.4l-0.4,0.4l-0.4,0.3l-0.4,0.4l-0.4,0.3l-0.4,0.3l-0.4,0.3l-0.4,0.3l-0.4,0.3l-0.4,0.3l-0.4,0.3l-0.5,0.3l-0.5,0.3
				l-0.4,0.2l-0.5,0.2l-0.6,0.2l-0.5,0.2l-0.5,0.2l-0.5,0.2l-0.5,0.2l-0.5,0.1l-0.6,0.2l-0.5,0.1l-0.6,0.1l-0.6,0.1l-0.6,0.1
				l-0.6,0.1l-0.6,0.1l-0.6,0.1l-0.6,0.1l-0.6,0.1h-0.6h-0.6h-0.6h-0.6h-0.6h-0.6h-0.6h-0.6h-0.6h-0.6h-0.6h-0.6h-0.6h-0.6h-0.6
				h-0.6h-0.6h-0.6h-0.6h-0.6h-0.6h-0.6h-0.6h-0.6h-0.6h-0.6h-0.6h-0.6h-0.6h-0.6v-0.6v-0.6v-0.6v-0.6v-0.6v-0.6V257v-0.6v-0.7V255
				v-0.6v-0.6v-0.6v-0.6v-0.6v-0.6v-0.6v-0.2V250v-0.6v-0.6v-0.6v-0.6v-0.6v-0.6v-0.6v-0.3v-0.6v-0.6v-0.6v-0.6v-0.6v-0.6V241v-0.6
				v-0.2v-0.6v-0.6v-0.6v-0.6v-0.6v-0.6v-0.6v-0.6v-0.6V234v-0.6v-0.6v-0.6v-0.6v-0.6v0v-0.6v-0.6v-0.5v-0.6v-0.6v-0.6v-0.6V226
				v-0.6v-0.6v-0.6v-0.6V223v-0.6v-0.6v-0.6v-0.6v0.1V220v-0.6v-0.5H1255.5z M1264.2,226.9v0.6v0.6v0.6v0.6v0.6v0.6v0.6v0.6v0.6v0.6
				v0.6v0.6v0.6v0.6v0.6v0.6v0.6v0.6v0.6v0.6v0.6v0.6v0.6v0.6v0.6v0.6v0.6v0.6v0.6v0.6v0.6v0.6v0.6v0.6v0.6v0.6v0.6v0.6v0.6v0.6v0.6
				v0.6v0.6v0.6v0.6h0.6h0.6h0.6h0.5h0.6h0.6h0.6h0.6h0.6h0.5h0.6h0.6h0.6h0.6l0.6-0.1l0.6-0.1l0.6-0.1l0.6-0.1l0.6-0.1l0.6-0.2
				l0.5-0.2l0.6-0.2l0.6-0.2l0.6-0.3l0.5-0.3l0.5-0.3l0.5-0.3l0.4-0.3l0.4-0.4l0.4-0.4l0.4-0.4l0.3-0.4l0.4-0.4l0.3-0.5l0.3-0.5
				l0.3-0.5l0.3-0.6l0.3-0.6l0.2-0.5l0.2-0.6l0.2-0.5l0.1-0.6l0.1-0.6l0.1-0.6l0.1-0.6l0.1-0.6v-0.6v-0.1v-0.6l-0.1-0.6l-0.1-0.6
				l-0.1-0.6l-0.1-0.6l-0.1-0.6l-0.2-0.6l-0.2-0.5l-0.2-0.6l-0.2-0.5l-0.2-0.4l-0.3-0.5l-0.3-0.4l-0.3-0.4l-0.3-0.4l-0.3-0.4
				l-0.3-0.4l-0.3-0.4l-0.4-0.4l-0.4-0.3l-0.4-0.3l-0.4-0.3l-0.4-0.3l-0.4-0.3l-0.5-0.3l-0.4-0.2l-0.5-0.2l-0.6-0.2l-0.5-0.2
				l-0.6-0.2l-0.6-0.1l-0.6-0.1l-0.6-0.1l-0.6-0.1l-0.6-0.1h-0.6h-0.6h-0.6h-0.6h-0.5h-0.6h-0.6h-0.6h-0.6h-0.6h-0.5h-0.6h-0.6h-0.8
				V226.9z"/>
			<path class="st3" d="M1302.8,218.8h0.6h0.6h0.6h0.6h0.6h0.6h0.6h0.6h0.6h0.5h0.6h0.6h0.6h0.6h0.6h0.6h0.6h0.6h0.6h0.6h0.6h0.6
				h0.6h0.6h0.6h0.6h0.6h0.5h0.6h0.6h0.6h0.6h0.6h0.6h0.6h0.6h0.6h0.6h0.6h0.6h0.6h0.6h0.6h0.6h0.6h0.5h0.6h0.6h0.6h0.6h0.6h0.6h0.6
				h0.6h0.6v0.6v0.6v0.5v0.6v0.6v0.6v0.5v0.6v0.6v0.6v0.6v0.5v0.6v0.6h-0.6h-0.6h-0.6h-0.5h-0.6h-0.6h-0.6h-0.6h-0.6h-0.6h-0.6h-0.5
				h-0.6h-0.6h-0.6h-0.6h-0.6h-0.6h-0.6h-0.5h-0.6h-0.6h-0.6h-0.6h-0.6h-0.6h-0.6h-0.5h-0.6h-0.6h-0.6h-0.6h-0.6h-0.6h-0.6h-0.5
				h-0.6h-0.6h-0.6h-0.6v0.6v0.5v0.6v0.6v0.6v0.5v0.6v0.6v0.6v0.5v0.6v0.6v0.6v0.5v0.6v0.6h0.6h0.6h0.6h0.6h0.6h0.6h0.6h0.6h0.5h0.6
				h0.6h0.6h0.6h0.6h0.6h0.6h0.6h0.6h0.6h0.6h0.6h0.6h0.6h0.6h0.6h0.6h0.5h0.6h0.6h0.6h0.6h0.6h0.6h0.6h0.6v0.6v0.6v0.5v0.6v0.6v0.6
				v0.5v0.6v0.6v0.6v0.6v0.5v0.6v0.6h-0.6h-0.6h-0.6h-0.6h-0.6h-0.6h-0.6h-0.6h-0.5h-0.6h-0.6h-0.6h-0.6h-0.6h-0.6h-0.6h-0.6h-0.6
				h-0.6h-0.6h-0.6h-0.6h-0.6h-0.6h-0.6h-0.6h-0.5h-0.6h-0.6h-0.6h-0.6h-0.6h-0.6h-0.6h-0.6v0.6v0.6v0.6v0.6v0.6v0.6v0.6v0.6v0.6
				v0.6v0.6v0.6v0.6v0.6v0.6v0.6h0.6h0.6h0.6h0.6h0.6h0.6h0.6h0.6h0.6h0.6h0.6h0.6h0.6h0.6h0.6h0.6h0.6h0.6h0.6h0.6h0.6h0.6h0.6h0.6
				h0.6h0.6h0.6h0.6h0.6h0.6h0.6h0.6h0.6h0.6h0.6h0.6h0.6h0.6h0.6h0.6v0.6v0.6v0.5v0.6v0.6v0.6v0.5v0.6v0.6v0.6v0.6v0.5v0.6v0.6
				h-0.6h-0.6h-0.6h-0.6h-0.6h-0.6h-0.6h-0.6h-0.6h-0.6h-0.6h-0.6h-0.6h-0.6h-0.6h-0.6h-0.6h-0.6h-0.6h-0.6h-0.6h-0.6h-0.6h-0.6
				h-0.6h-0.6h-0.6h-0.6h-0.6h-0.6h-0.6h-0.6h-0.6h-0.6h-0.6h-0.6h-0.6h-0.6h-0.6h-0.6h-0.6h-0.6h-0.6h-0.6h-0.6h-0.6h-0.6h-0.6
				h-0.6h-0.6h-0.6h-0.6h-0.6h-0.6h-0.6v-0.6V262v-0.6v-0.6v-0.6v-0.6v-0.6v-0.6v-2.7V255v-0.6v-0.6v-0.6v-0.6v-0.6v-0.6v-0.6v-0.2
				V250v-0.6v-0.6v-0.6v-0.6v-0.6v-0.6v-0.6v-0.3v-0.6v-0.6v-0.6v-0.6v-0.6v-0.6V241v-0.6v-0.2v-0.6v-0.6v-0.6v-0.6v-0.6v-0.6v-0.6
				v-0.6v-0.6V234v-0.6v-0.6v-0.6v-0.6v-0.6v0v-0.6v-0.6v-0.5v-0.6v-0.6v-0.6v-0.6V226v-0.6v-0.6v-0.6v-0.6V223v-0.6v-0.6v-0.6v-0.6
				v0.1V220v-0.6v-0.5H1302.8z"/>
			<path class="st3" d="M1339.8,218.8h0.6h0.6h0.6h0.6h0.6h0.6h0.6h0.6h0.6h0.6h0.6h0.6h0.6h0.6h0.6h0.6h0.6l0.2,0.5l0.2,0.6
				l0.2,0.5l0.2,0.5l0.2,0.6l0.2,0.5l0.2,0.5l0.2,0.6l0.2,0.5l0.2,0.5l0.2,0.6l0.2,0.5l0.2,0.5l0.2,0.5l0.2,0.6l0.2,0.5l0.2,0.5
				l0.2,0.6l0.2,0.5l0.2,0.5l0.2,0.6l0.2,0.5l0.2,0.5l0.2,0.6l0.2,0.5l0.2,0.5l0.2,0.6l0.2,0.5l0.2,0.5l0.2,0.6l0.2,0.5l0.2,0.5
				l0.2,0.6l0.2,0.5l0.2,0.5l0.2,0.6l0.2,0.5l0.2,0.5l0.2,0.6l0.2,0.5l0.2,0.5l0.2,0.5l0.2,0.6l0.2,0.5l0.2,0.5l0.2,0.6l0.2,0.5
				l0.2,0.5l0.2,0.6l0.2,0.5l0.2,0.5l0.2,0.6l0.2,0.5l0.2,0.5l0.2,0.6l0.2,0.5l0.2-0.5l0.2-0.6l0.2-0.5l0.2-0.5l0.2-0.6l0.2-0.5
				l0.2-0.5l0.2-0.6l0.2-0.5l0.2-0.5l0.2-0.6l0.2-0.5l0.2-0.5l0.2-0.6l0.2-0.5l0.2-0.5l0.2-0.5l0.2-0.6l0.2-0.5l0.2-0.5l0.2-0.6
				l0.2-0.5l0.2-0.5l0.2-0.6l0.2-0.5l0.2-0.5l0.2-0.6l0.2-0.5l0.2-0.5l0.2-0.6l0.2-0.5l0.2-0.5l0.2-0.6l0.2-0.5l0.2-0.5l0.2-0.6
				l0.2-0.5l0.2-0.5l0.2-0.6l0.2-0.5l0.2-0.5l0.2-0.6l0.2-0.5l0.2-0.5l0.2-0.5l0.2-0.6l0.2-0.5l0.2-0.5l0.2-0.6l0.2-0.5l0.2-0.5
				l0.2-0.6l0.2-0.5l0.2-0.5l0.2-0.6l0.2-0.5h0.6h0.6h0.5h0.6h0.6h0.6h0.5h0.6h0.6h0.6h0.5h0.6h0.6h0.6h0.5h0.6h0.6l-0.2,0.5
				l-0.2,0.6l-0.2,0.5l-0.2,0.5l-0.2,0.5l-0.2,0.6l-0.2,0.5l-0.2,0.5l-0.2,0.6l-0.2,0.5l-0.2,0.5l-0.2,0.5l-0.2,0.6l-0.2,0.5
				l-0.2,0.5l-0.2,0.5l-0.2,0.6l-0.2,0.5l-0.2,0.5l-0.2,0.6l-0.2,0.5l-0.2,0.5l-0.2,0.5l-0.2,0.6l-0.2,0.5l-0.2,0.5l-0.2,0.6
				l-0.2,0.5l-0.2,0.5l-0.2,0.5l-0.2,0.6l-0.2,0.5l-0.2,0.5l-0.2,0.5l-0.2,0.6l-0.2,0.5l-0.2,0.5l-0.2,0.6l-0.2,0.5l-0.2,0.5
				l-0.2,0.5l-0.2,0.6l-0.2,0.5l-0.2,0.5l-0.2,0.6l-0.2,0.5l-0.2,0.5l-0.2,0.5l-0.2,0.6l-0.2,0.5l-0.2,0.5l-0.2,0.5l-0.2,0.6
				l-0.2,0.5l-0.2,0.5l-0.2,0.6l-0.2,0.5l-0.2,0.5l-0.2,0.5l-0.2,0.6l-0.2,0.5l-0.2,0.5l-0.2,0.6l-0.2,0.5l-0.2,0.5l-0.2,0.5
				l-0.2,0.6l-0.2,0.5l-0.2,0.5l-0.2,0.5l-0.2,0.6l-0.2,0.5l-0.2,0.5l-0.2,0.6l-0.2,0.5l-0.2,0.5l-0.2,0.5l-0.2,0.6l-0.2,0.5h-0.6
				h-0.5h-0.6h-0.6h-0.6h-0.5h-0.6h-0.6h-0.5h-0.6h-0.6h-0.6h-0.5h-0.6l-0.2-0.5l-0.2-0.6l-0.2-0.5l-0.2-0.5l-0.2-0.5l-0.2-0.6
				l-0.2-0.5l-0.2-0.5l-0.2-0.6l-0.2-0.5l-0.2-0.5l-0.2-0.5l-0.2-0.6l-0.2-0.5l-0.2-0.5l-0.2-0.5l-0.2-0.6l-0.2-0.5l-0.2-0.5
				l-0.2-0.6l-0.2-0.5l-0.2-0.5l-0.2-0.5l-0.2-0.6l-0.2-0.5l-0.2-0.5l-0.2-0.6l-0.2-0.5l-0.2-0.5l-0.2-0.5l-0.2-0.6l-0.2-0.5
				l-0.2-0.5l-0.2-0.5l-0.2-0.6l-0.2-0.5l-0.2-0.5l-0.2-0.6l-0.2-0.5l-0.2-0.5l-0.2-0.5l-0.2-0.6l-0.2-0.5l-0.2-0.5l-0.2-0.6
				l-0.2-0.5l-0.2-0.5l-0.2-0.5l-0.2-0.6l-0.2-0.5l-0.2-0.5l-0.2-0.5l-0.2-0.6l-0.2-0.5l-0.2-0.5l-0.2-0.6l-0.2-0.5l-0.2-0.5
				l-0.2-0.5l-0.2-0.6l-0.2-0.5l-0.2-0.5l-0.2-0.6l-0.2-0.5l-0.2-0.5l-0.2-0.5l-0.2-0.6l-0.2-0.5l-0.2-0.5l-0.2-0.5l-0.2-0.6
				l-0.2-0.5l-0.2-0.5l-0.2-0.6l-0.2-0.5l-0.2-0.5l-0.2-0.5l-0.2-0.6L1339.8,218.8z"/>
			<path class="st3" d="M1388.9,218.8h0.6h0.6h0.6h0.6h0.6h0.6h0.6h0.6h0.6h0.5h0.6h0.6h0.6h0.6h0.6h0.6h0.6h0.6h0.6h0.6h0.6h0.6
				h0.6h0.6h0.6h0.6h0.6h0.5h0.6h0.6h0.6h0.6h0.6h0.6h0.6h0.6h0.6h0.6h0.6h0.6h0.6h0.6h0.6h0.6h0.6h0.5h0.6h0.6h0.6h0.6h0.6h0.6h0.6
				h0.6h0.6v0.6v0.6v0.5v0.6v0.6v0.6v0.5v0.6v0.6v0.6v0.6v0.5v0.6v0.6h-0.6h-0.6h-0.6h-0.5h-0.6h-0.6h-0.6h-0.6h-0.6h-0.6h-0.6h-0.5
				h-0.6h-0.6h-0.6h-0.6h-0.6h-0.6h-0.6h-0.5h-0.6h-0.6h-0.6h-0.6h-0.6h-0.6h-0.6h-0.5h-0.6h-0.6h-0.6h-0.6h-0.6h-0.6h-0.6h-0.5
				h-0.6h-0.6h-0.6h-0.6v0.6v0.5v0.6v0.6v0.6v0.5v0.6v0.6v0.6v0.5v0.6v0.6v0.6v0.5v0.6v0.6h0.6h0.6h0.6h0.6h0.6h0.6h0.6h0.6h0.5h0.6
				h0.6h0.6h0.6h0.6h0.6h0.6h0.6h0.6h0.6h0.6h0.6h0.6h0.6h0.6h0.6h0.6h0.5h0.6h0.6h0.6h0.6h0.6h0.6h0.6h0.6v0.6v0.6v0.5v0.6v0.6v0.6
				v0.5v0.6v0.6v0.6v0.6v0.5v0.6v0.6h-0.6h-0.6h-0.6h-0.6h-0.6h-0.6h-0.6h-0.6h-0.5h-0.6h-0.6h-0.6h-0.6h-0.6h-0.6h-0.6h-0.6h-0.6
				h-0.6h-0.6h-0.6h-0.6h-0.6h-0.6h-0.6h-0.6h-0.5h-0.6h-0.6h-0.6h-0.6h-0.6h-0.6h-0.6h-0.6v0.6v0.6v0.6v0.6v0.6v0.6v0.6v0.6v0.6
				v0.6v0.6v0.6v0.6v0.6v0.6v0.6h0.6h0.6h0.6h0.6h0.6h0.6h0.6h0.6h0.6h0.6h0.6h0.6h0.6h0.6h0.6h0.6h0.6h0.6h0.6h0.6h0.6h0.6h0.6h0.6
				h0.6h0.6h0.6h0.6h0.6h0.6h0.6h0.6h0.6h0.6h0.6h0.6h0.6h0.6h0.6h0.6v0.6v0.6v0.5v0.6v0.6v0.6v0.5v0.6v0.6v0.6v0.6v0.5v0.6v0.6
				h-0.6h-0.6h-0.6h-0.6h-0.6h-0.6h-0.6h-0.6h-0.6h-0.6h-0.6h-0.6h-0.6h-0.6h-0.6h-0.6h-0.6h-0.6h-0.6h-0.6h-0.6h-0.6h-0.6h-0.6
				h-0.6h-0.6h-0.6h-0.6h-0.6h-0.6h-0.6h-0.6h-0.6h-0.6h-0.6h-0.6h-0.6h-0.6h-0.6h-0.6h-0.6h-0.6h-0.6h-0.6h-0.6h-0.6h-0.6h-0.6
				h-0.6h-0.6h-0.6h-0.6h-0.6h-0.6h-0.6v-0.6V262v-0.6v-0.6v-0.6v-0.6v-0.6v-0.6v-2.7V255v-0.6v-0.6v-0.6v-0.6v-0.6v-0.6v-0.6v-0.2
				V250v-0.6v-0.6v-0.6v-0.6v-0.6v-0.6v-0.6v-0.3v-0.6v-0.6v-0.6v-0.6v-0.6v-0.6V241v-0.6v-0.2v-0.6v-0.6v-0.6v-0.6v-0.6v-0.6v-0.6
				v-0.6v-0.6V234v-0.6v-0.6v-0.6v-0.6v-0.6v0v-0.6v-0.6v-0.5v-0.6v-0.6v-0.6v-0.6V226v-0.6v-0.6v-0.6v-0.6V223v-0.6v-0.6v-0.6v-0.6
				v0.1V220v-0.6v-0.5H1388.9z"/>
			<path class="st3" d="M1429.5,218.8h0.6h0.6h0.6h0.6h0.6h0.6h0.6h0.6h0.6h0.6h0.6h0.6h0.6h0.6h0.6v0.6v0.6v0.6v0.6v0.6v0.6v0.6
				v0.6v0.6v0.6v0.6v0.6v0.6v0.6v0.5v0.6v0.6v0.6v0.6v0.6v0.6v0.6v0.6v0.6v0.6v0.6v0.6v0.6v0.6v0.6v0.6v0.6v0.6v0.6v0.6v0.6v0.6v0.6
				v0.6v0.6v0.6v0.6v0.6v0.6v0.5v0.6v0.6v0.6v0.6v0.6v0.6v0.6v0.6v0.6v0.6v0.6v0.6v0.6v0.6h0.6h0.6h0.6h0.6h0.6h0.6h0.5h0.6h0.6h0.6
				h0.6h0.6h0.6h0.6h0.6h0.6h0.6h0.6h0.5h0.6h0.6h0.6h0.6h0.6h0.6h0.6h0.6h0.6h0.6h0.6h0.5h0.6h0.6h0.6h0.6h0.6h0.6v0.6v0.6v0.6v0.6
				v0.6v0.6v0.6v0.6v0.6v0.6v0.6v0.6v0.6v0.6h-0.6h-0.6h-0.6h-0.6h-0.6h-0.6h-0.6h-0.6h-0.6h-0.6h-0.6h-0.6h-0.6h-0.6h-0.6h-0.6
				h-0.6h-0.6h-0.6h-0.6h-0.6h-0.6h-0.6h-0.6h-0.6h-0.6h-0.6h-0.6h-0.6h-0.6h-0.6h-0.6h-0.6h-0.6h-0.6h-0.6h-0.6h-0.6h-0.6h-0.6
				h-0.6h-0.6h-0.6h-0.6h-0.6h-0.6h-0.6h-0.6h-0.6h-0.6h-0.6h-0.6v-0.6v-0.6v-0.6v-0.6v-0.6v-0.6v-0.6v-0.6v-3.2V255v-0.6v-0.6v-0.6
				v-0.6v-0.6v-0.6v-0.6v-0.2V250v-0.6v-0.6v-0.6v-0.6v-0.6v-0.6v-0.6v-0.3v-0.6v-0.6v-0.6v-0.6v-0.6v-0.6V241v-0.6v-0.2v-0.6v-0.6
				v-0.6v-0.6v-0.6v-0.6v-0.6v-0.6v-0.6V234v-0.6v-0.6v-0.6v-0.6v-0.6v0v-0.6v-0.6v-0.5v-0.6v-0.6v-0.6v-0.6V226v-0.6v-0.6v-0.6
				v-0.6V223v-0.6v-0.6v-0.6v-0.6v0.1V220v-0.6v-0.5H1429.5z"/>
			<path class="st3" d="M1485,261.5h-0.6h-0.6l-0.6-0.1l-0.6-0.1l-0.6-0.1l-0.6-0.1l-0.6-0.1l-0.6-0.1l-0.5-0.1l-0.6-0.2l-0.5-0.1
				l-0.5-0.2l-0.6-0.1l-0.5-0.2l-0.5-0.2l-0.4-0.2l-0.6-0.2l-0.5-0.2l-0.5-0.2l-0.5-0.3l-0.4-0.3l-0.5-0.2l-0.4-0.3l-0.4-0.3
				l-0.4-0.3l-0.4-0.3l-0.4-0.3l-0.4-0.3l-0.4-0.3l-0.4-0.4l-0.3-0.4l-0.4-0.4l-0.4-0.4l-0.4-0.4l-0.3-0.4l-0.3-0.4l-0.3-0.4
				l-0.3-0.4l-0.3-0.5l-0.3-0.5l-0.3-0.5l-0.3-0.5l-0.3-0.5l-0.2-0.5l-0.2-0.6l-0.2-0.5l-0.2-0.5l-0.2-0.6l-0.2-0.5l-0.1-0.5
				l-0.2-0.6l-0.1-0.6l-0.1-0.5l-0.1-0.6l-0.1-0.6l-0.1-0.6l-0.1-0.6v-0.4l-0.1-0.6V240v-0.1v-0.6l0.1-0.6v-0.5l0.1-0.6l0.1-0.6
				l0.1-0.6l0.1-0.6l0.1-0.6l0.1-0.5l0.2-0.6l0.2-0.5l0.2-0.6l0.2-0.5l0.2-0.5l0.2-0.6l0.2-0.5l0.2-0.4l0.3-0.5l0.2-0.5l0.3-0.4
				l0.3-0.5l0.3-0.4l0.3-0.4l0.3-0.4l0.3-0.4l0.3-0.4l0.3-0.4l0.3-0.4l0.4-0.4l0.4-0.4l0.3-0.4l0.4-0.3l0.4-0.4l0.4-0.3l0.4-0.3
				l0.4-0.3l0.4-0.3l0.4-0.3l0.4-0.3l0.5-0.3l0.5-0.3l0.4-0.2l0.5-0.3l0.6-0.2l0.5-0.2l0.5-0.2l0.5-0.2l0.5-0.2l0.5-0.2l0.6-0.2
				l0.5-0.1l0.6-0.2l0.5-0.1l0.6-0.1l0.6-0.1l0.6-0.1l0.6-0.1l0.6-0.1l0.6-0.1h0.6h0.6h0.6h0.6l0.6,0.1l0.6,0.1l0.6,0.1l0.6,0.1
				l0.6,0.1l0.6,0.1l0.5,0.1l0.6,0.2l0.5,0.1l0.5,0.2l0.6,0.1l0.5,0.2l0.5,0.2l0.5,0.2l0.5,0.3l0.5,0.2l0.5,0.2l0.5,0.3l0.4,0.2
				l0.5,0.3l0.4,0.3l0.4,0.3l0.4,0.3l0.4,0.3l0.4,0.3l0.4,0.3l0.4,0.3l0.4,0.4l0.4,0.3l0.4,0.4l0.4,0.4l0.4,0.4l0.3,0.4l0.3,0.4
				l0.3,0.4l0.3,0.4l0.3,0.5l0.3,0.5l0.3,0.5l0.3,0.5l0.3,0.5l0.2,0.5l0.3,0.6l0.2,0.5l0.2,0.5l0.2,0.6l0.2,0.5l0.1,0.5l0.2,0.6
				l0.1,0.6l0.1,0.5l0.1,0.6l0.1,0.6l0.1,0.6l0.1,0.6v0.6l0.1,0.6v0.6v0.1v0.6l-0.1,0.6v0.6l-0.1,0.6l-0.1,0.6l-0.1,0.6l-0.1,0.6
				l-0.1,0.6l-0.1,0.5l-0.2,0.6l-0.2,0.5l-0.2,0.6l-0.2,0.5l-0.2,0.5l-0.2,0.5l-0.2,0.6l-0.2,0.4l-0.2,0.5l-0.3,0.5l-0.3,0.4
				l-0.3,0.4l-0.3,0.5l-0.3,0.4l-0.3,0.4l-0.3,0.4l-0.3,0.4l-0.3,0.4l-0.3,0.4l-0.4,0.4l-0.3,0.4l-0.4,0.4l-0.4,0.3l-0.4,0.4
				l-0.4,0.3l-0.4,0.3l-0.4,0.3l-0.4,0.3l-0.4,0.3l-0.4,0.3l-0.5,0.3l-0.5,0.3l-0.4,0.2l-0.5,0.3l-0.6,0.2l-0.5,0.2l-0.5,0.2
				l-0.5,0.2l-0.5,0.2l-0.5,0.2l-0.6,0.2l-0.5,0.1l-0.6,0.2l-0.5,0.1l-0.6,0.1l-0.6,0.1l-0.6,0.1l-0.6,0.1l-0.6,0.1l-0.6,0.1h-0.6
				h-0.8V261.5z M1485.1,253.4h0.6l0.6-0.1l0.6-0.1l0.6-0.1l0.6-0.1l0.6-0.1l0.6-0.2l0.5-0.2l0.6-0.2l0.5-0.2l0.4-0.2l0.5-0.3
				l0.4-0.3l0.4-0.3l0.4-0.3l0.4-0.3l0.4-0.4l0.4-0.4l0.3-0.4l0.3-0.4l0.3-0.4l0.3-0.4l0.3-0.4l0.3-0.4l0.3-0.5l0.2-0.5l0.2-0.6
				l0.2-0.5l0.2-0.6l0.2-0.5l0.1-0.6l0.1-0.6l0.1-0.6l0.1-0.6l0.1-0.6V240v-0.1v-0.6l-0.1-0.6l-0.1-0.6l-0.1-0.6l-0.1-0.6l-0.2-0.6
				l-0.1-0.5l-0.2-0.6l-0.2-0.6l-0.2-0.5l-0.2-0.5l-0.3-0.5l-0.3-0.4l-0.3-0.5l-0.3-0.4l-0.3-0.4l-0.3-0.4l-0.4-0.4l-0.4-0.4
				l-0.4-0.3l-0.4-0.4l-0.4-0.3l-0.4-0.3l-0.4-0.3l-0.5-0.3l-0.4-0.2l-0.5-0.3l-0.6-0.2l-0.5-0.2l-0.6-0.2l-0.6-0.1l-0.6-0.1
				l-0.6-0.1l-0.6-0.1l-0.6-0.1h-0.6h-0.6l-0.6,0.1l-0.6,0.1l-0.6,0.1l-0.6,0.1l-0.6,0.1l-0.5,0.2l-0.6,0.2l-0.5,0.2l-0.5,0.3
				l-0.5,0.2l-0.4,0.3l-0.4,0.3l-0.4,0.3l-0.4,0.3l-0.4,0.3l-0.4,0.4l-0.3,0.3l-0.4,0.4l-0.3,0.4l-0.3,0.4l-0.3,0.4l-0.3,0.4
				l-0.3,0.4l-0.3,0.5l-0.2,0.5l-0.2,0.5l-0.2,0.6l-0.2,0.6l-0.2,0.5l-0.1,0.6l-0.1,0.6l-0.1,0.6l-0.1,0.6l-0.1,0.6v0.6v0.1v0.6
				l0.1,0.6l0.1,0.6l0.1,0.6l0.1,0.6l0.1,0.6l0.2,0.5l0.2,0.6l0.2,0.5l0.2,0.6l0.3,0.5l0.2,0.5l0.3,0.4l0.3,0.5l0.3,0.4l0.3,0.4
				l0.4,0.4l0.3,0.4l0.4,0.4l0.4,0.3l0.4,0.4l0.4,0.3l0.4,0.3l0.4,0.3l0.5,0.3l0.4,0.2l0.6,0.2l0.5,0.2l0.5,0.2l0.6,0.2l0.6,0.1
				l0.6,0.1l0.6,0.1l0.6,0.1l0.6,0.1h0.5V253.4z"/>
			<path class="st3" d="M1516.2,218.8h0.6h0.6h0.6h0.5h0.6h0.6h0.6h0.6h0.6h0.5h0.6h0.6h0.6h0.6h0.6h0.5h0.6h0.6h0.6h0.6h0.6h0.5
				h0.6h0.6h0.6h0.6h0.6h0.5h0.6h0.6h0.6l0.6,0.1h0.6l0.6,0.1l0.6,0.1l0.6,0.1l0.5,0.1l0.6,0.1l0.5,0.1l0.5,0.2l0.5,0.2l0.5,0.1
				l0.6,0.2l0.5,0.2l0.6,0.3l0.5,0.3l0.5,0.3l0.5,0.3l0.4,0.3l0.4,0.3l0.4,0.4l0.4,0.3l0.4,0.4l0.4,0.4l0.3,0.4l0.3,0.4l0.3,0.4
				l0.3,0.4l0.3,0.5l0.3,0.4l0.2,0.5l0.2,0.5l0.2,0.5l0.2,0.6l0.2,0.5l0.1,0.6l0.1,0.6l0.1,0.6l0.1,0.6l0.1,0.6l0.1,0.6v0.6v0.1v0.6
				l-0.1,0.6l-0.1,0.6l-0.1,0.6l-0.1,0.6l-0.1,0.6l-0.1,0.6l-0.2,0.5l-0.2,0.6l-0.2,0.5l-0.2,0.4l-0.3,0.6l-0.3,0.5l-0.3,0.5
				l-0.3,0.4l-0.3,0.4l-0.4,0.4l-0.4,0.4l-0.4,0.4l-0.4,0.3l-0.4,0.4l-0.4,0.3l-0.4,0.3l-0.4,0.3l-0.4,0.3l-0.4,0.3l-0.5,0.2
				l-0.4,0.2l-0.5,0.2l-0.5,0.2l-0.5,0.2l-0.6,0.2l-0.5,0.2l-0.5,0.1l-0.5,0.1l-0.5,0.1l-0.6,0.1l-0.5,0.1l-0.6,0.1l-0.5,0.1
				l-0.6,0.1l-0.6,0.1h-0.6h-0.6h-0.6h-0.6h-0.5h-0.6h-0.6h-0.6h-0.5h-0.6h-0.6h-0.6h-0.5h-0.6h-0.6v0.6v0.6v0.6v0.6v0.6v0.6v0.6
				v0.6v0.6v0.6v0.6v0.6v0.6v0.6v0.6v0.6v0.6v0.6v0.6v0.6v0.6v0.6h-0.6h-0.6h-0.6h-0.6h-0.6h-0.6h-0.6h-0.6h-0.6h-0.6h-0.6h-0.6
				h-0.6h-0.6h-0.6v-0.6v-0.6v-0.6v-0.6v-0.6v-0.6v-0.6V257v-1.3V255v-0.6v-0.6v-0.6v-0.6v-0.6v-0.6v-0.6v-0.2V250v-0.6v-0.6v-0.6
				v-0.6v-0.6v-0.6v-0.6v-0.3v-0.6v-0.6v-0.6v-0.6v-0.6v-0.6V241v-0.6v-0.2v-0.6v-0.6v-0.6v-0.6v-0.6v-0.6v-0.6v-0.6v-0.6V234v-0.6
				v-0.6v-0.6v-0.6v-0.6v0v-0.6v-0.6v-0.5v-0.6v-0.6v-0.6v-0.6V226v-0.6v-0.6v-0.6v-0.6V223v-0.6v-0.6v-0.6v-0.6v0.1V220v-0.6v-0.5
				H1516.2z M1532.6,240.2h0.6l0.6-0.1l0.6-0.1l0.6-0.1l0.5-0.2l0.5-0.2l0.5-0.2l0.4-0.2l0.4-0.3l0.4-0.3l0.4-0.3l0.4-0.4l0.4-0.4
				l0.3-0.4l0.3-0.5l0.2-0.5l0.2-0.5l0.1-0.6l0.1-0.6v-0.6v-0.1v-0.6l-0.1-0.6l-0.1-0.6l-0.2-0.5l-0.2-0.5l-0.2-0.4l-0.3-0.4
				l-0.3-0.4l-0.4-0.4l-0.3-0.3l-0.4-0.3l-0.4-0.3l-0.4-0.2l-0.5-0.2l-0.4-0.2l-0.5-0.2l-0.6-0.1l-0.6-0.1l-0.6-0.1l-0.6-0.1h-0.6
				h-0.6h-0.6h-0.6h-0.6h-0.6h-0.6h-0.5h-0.6h-0.6h-0.6h-0.6h-0.6h-0.6v0.6v0.6v0.6v0.6v0.6v0.6v0.6v0.6v0.6v0.6v0.6v0.6v0.6v0.6
				v0.6v0.6v0.6v0.6v0.6v0.6v0.6v0.6v0.6h0.6h0.6h0.6h0.6h0.6h0.6h0.6h0.6h0.6h0.6h0.6h0.6h0.7V240.2z"/>
			<path class="st3" d="M1556.7,218.8h0.6h0.6h0.6h0.6h0.6h0.6h0.6h0.6h0.6h0.5h0.6h0.6h0.6h0.6h0.6h0.6h0.6h0.6h0.6h0.6h0.6h0.6
				h0.6h0.6h0.6h0.6h0.6h0.5h0.6h0.6h0.6h0.6h0.6h0.6h0.6h0.6h0.6h0.6h0.6h0.6h0.6h0.6h0.6h0.6h0.6h0.5h0.6h0.6h0.6h0.6h0.6h0.6h0.6
				h0.6h0.6v0.6v0.6v0.5v0.6v0.6v0.6v0.5v0.6v0.6v0.6v0.6v0.5v0.6v0.6h-0.6h-0.6h-0.6h-0.5h-0.6h-0.6h-0.6h-0.6h-0.6h-0.6h-0.6h-0.5
				h-0.6h-0.6h-0.6h-0.6h-0.6h-0.6h-0.6h-0.5h-0.6h-0.6h-0.6h-0.6h-0.6h-0.6h-0.6h-0.5h-0.6h-0.6h-0.6h-0.6h-0.6h-0.6h-0.6h-0.5
				h-0.6h-0.6h-0.6h-0.6v0.6v0.5v0.6v0.6v0.6v0.5v0.6v0.6v0.6v0.5v0.6v0.6v0.6v0.5v0.6v0.6h0.6h0.6h0.6h0.6h0.6h0.6h0.6h0.6h0.5h0.6
				h0.6h0.6h0.6h0.6h0.6h0.6h0.6h0.6h0.6h0.6h0.6h0.6h0.6h0.6h0.6h0.6h0.5h0.6h0.6h0.6h0.6h0.6h0.6h0.6h0.6v0.6v0.6v0.5v0.6v0.6v0.6
				v0.5v0.6v0.6v0.6v0.6v0.5v0.6v0.6h-0.6h-0.6h-0.6h-0.6h-0.6h-0.6h-0.6h-0.6h-0.5h-0.6h-0.6h-0.6h-0.6h-0.6h-0.6h-0.6h-0.6h-0.6
				h-0.6h-0.6h-0.6h-0.6h-0.6h-0.6h-0.6h-0.6h-0.5h-0.6h-0.6h-0.6h-0.6h-0.6h-0.6h-0.6h-0.6v0.6v0.6v0.6v0.6v0.6v0.6v0.6v0.6v0.6
				v0.6v0.6v0.6v0.6v0.6v0.6v0.6h0.6h0.6h0.6h0.6h0.6h0.6h0.6h0.6h0.6h0.6h0.6h0.6h0.6h0.6h0.6h0.6h0.6h0.6h0.6h0.6h0.6h0.6h0.6h0.6
				h0.6h0.6h0.6h0.6h0.6h0.6h0.6h0.6h0.6h0.6h0.6h0.6h0.6h0.6h0.6h0.6v0.6v0.6v0.5v0.6v0.6v0.6v0.5v0.6v0.6v0.6v0.6v0.5v0.6v0.6
				h-0.6h-0.6h-0.6h-0.6h-0.6h-0.6h-0.6h-0.6h-0.6h-0.6h-0.6h-0.6h-0.6h-0.6h-0.6h-0.6h-0.6h-0.6h-0.6h-0.6h-0.6h-0.6h-0.6h-0.6
				h-0.6h-0.6h-0.6h-0.6h-0.6h-0.6h-0.6h-0.6h-0.6h-0.6h-0.6h-0.6h-0.6h-0.6h-0.6h-0.6h-0.6h-0.6h-0.6h-0.6h-0.6h-0.6h-0.6h-0.6
				h-0.6h-0.6h-0.6h-0.6h-0.6h-0.6h-0.6v-0.6V262v-0.6v-0.6v-0.6v-0.6v-0.6v-0.6v-2.7V255v-0.6v-0.6v-0.6v-0.6v-0.6v-0.6v-0.6v-0.2
				V250v-0.6v-0.6v-0.6v-0.6v-0.6v-0.6v-0.6v-0.3v-0.6v-0.6v-0.6v-0.6v-0.6v-0.6V241v-0.6v-0.2v-0.6v-0.6v-0.6v-0.6v-0.6v-0.6v-0.6
				v-0.6v-0.6V234v-0.6v-0.6v-0.6v-0.6v-0.6v0v-0.6v-0.6v-0.5v-0.6v-0.6v-0.6v-0.6V226v-0.6v-0.6v-0.6v-0.6V223v-0.6v-0.6v-0.6v-0.6
				v0.1V220v-0.6v-0.5H1556.7z"/>
			<path class="st3" d="M1597.3,218.8h0.6h0.6h0.6h0.6h0.6h0.6h0.6h0.6h0.6h0.6h0.6h0.6h0.6h0.6h0.6h0.6h0.6h0.6h0.6h0.6h0.6h0.6
				h0.6h0.6h0.6h0.6h0.6h0.6h0.6h0.6h0.6h0.6h0.6h0.7l0.7,0.1h0.6l0.6,0.1l0.6,0.1l0.6,0.1l0.6,0.1l0.6,0.1l0.6,0.1l0.6,0.2l0.5,0.2
				l0.6,0.2l0.5,0.2l0.4,0.2l0.5,0.2l0.4,0.3l0.4,0.2l0.4,0.3l0.4,0.3l0.4,0.3l0.4,0.3l0.3,0.3l0.4,0.3l0.4,0.4l0.3,0.4l0.3,0.4
				l0.3,0.4l0.3,0.4l0.3,0.4l0.2,0.5l0.2,0.5l0.2,0.4l0.2,0.6l0.2,0.5l0.1,0.6l0.1,0.6l0.1,0.6l0.1,0.6l0.1,0.6l0.1,0.6v0.6v0.1v0.7
				l-0.1,0.6l-0.1,0.6l-0.1,0.6l-0.1,0.6l-0.1,0.6l-0.2,0.6l-0.2,0.5l-0.2,0.6l-0.2,0.5l-0.2,0.5l-0.2,0.4l-0.3,0.4l-0.3,0.4
				l-0.3,0.4l-0.3,0.4l-0.4,0.4l-0.4,0.4l-0.4,0.4l-0.4,0.3l-0.4,0.3l-0.4,0.3l-0.4,0.3l-0.5,0.3l-0.5,0.3l-0.5,0.3l-0.5,0.2
				l-0.6,0.2l-0.6,0.2l0.3,0.4l0.3,0.4l0.3,0.5l0.3,0.4l0.3,0.4l0.3,0.4l0.3,0.5l0.3,0.4l0.3,0.4l0.3,0.4l0.3,0.4l0.3,0.5l0.3,0.4
				l0.3,0.4l0.3,0.4l0.3,0.4l0.3,0.5l0.3,0.4l0.3,0.4l0.3,0.4l0.3,0.5l0.3,0.4l0.3,0.4l0.3,0.4l0.3,0.4l0.3,0.5l0.3,0.4l0.3,0.4
				l0.3,0.4l0.3,0.5l0.3,0.4l0.3,0.4h-0.6h-0.6h-0.6h-0.6h-0.6h-0.6h-0.6h-0.6h-0.6h-0.6h-0.6h-0.6h-0.6h-0.6h-0.6h-0.6h-0.6h-0.6
				l-0.3-0.4l-0.3-0.4l-0.3-0.5l-0.3-0.4l-0.3-0.4l-0.3-0.4l-0.3-0.4l-0.3-0.4l-0.3-0.5l-0.3-0.4l-0.3-0.4l-0.3-0.4l-0.3-0.4
				l-0.3-0.4l-0.3-0.5l-0.3-0.4l-0.3-0.4l-0.3-0.4l-0.3-0.4l-0.3-0.4l-0.3-0.5l-0.3-0.4l-0.3-0.4l-0.3-0.4l-0.3-0.4l-0.3-0.4
				l-0.3-0.5l-0.3-0.4l-0.3-0.4h-0.6h-0.6h-0.6h-0.6h-0.6h-0.6h-0.6h-0.6h-0.6h-0.6h-0.6h-0.6h-0.6v0.6v0.6v0.6v0.5v0.6v0.6v0.6v0.6
				v0.6v0.6v0.6v0.5v0.6v0.6v0.6v0.6v0.6v0.6v0.6v0.5v0.6v0.6v0.6v0.6h-0.6h-0.6h-0.6h-0.6h-0.6h-0.6h-0.6h-0.6h-0.6h-0.6h-0.6h-0.6
				h-0.6h-0.6h-0.6v-0.6v-0.6v-0.6v-0.6v-0.6v-0.6V257v-0.6v-0.7V255v-0.6v-0.6v-0.6v-0.6v-0.6v-0.6v-0.6v-0.2V250v-0.6v-0.6v-0.6
				v-0.6v-0.6v-0.6v-0.6v-0.3v-0.6v-0.6v-0.6v-0.6v-0.6v-0.6V241v-0.6v-0.2v-0.6v-0.6v-0.6v-0.6v-0.6v-0.6v-0.6v-0.6v-0.6V234v-0.6
				v-0.6v-0.6v-0.6v-0.6v0v-0.6v-0.6v-0.5v-0.6v-0.6v-0.6v-0.6V226v-0.6v-0.6v-0.6v-0.6V223v-0.6v-0.6v-0.6v-0.6v0.1V220v-0.6v-0.5
				H1597.3z M1615.8,239.2h0.7l0.6-0.1l0.6-0.1l0.6-0.1l0.6-0.1l0.5-0.2l0.4-0.2l0.4-0.3l0.4-0.3l0.4-0.3l0.4-0.3l0.3-0.4l0.3-0.4
				l0.3-0.4l0.2-0.5l0.2-0.5l0.1-0.6l0.1-0.6v-0.6V233v-0.6l-0.1-0.6l-0.1-0.6l-0.2-0.6l-0.2-0.5l-0.3-0.4l-0.3-0.4l-0.4-0.4
				l-0.4-0.3l-0.4-0.3l-0.4-0.3l-0.4-0.2l-0.5-0.2l-0.5-0.2l-0.6-0.2l-0.6-0.1l-0.6-0.1l-0.6-0.1h-0.7h-0.6h-0.5h-0.6h-0.6h-0.6
				h-0.5h-0.6h-0.6h-0.5h-0.6h-0.6h-0.5h-0.6h-0.6h-0.6h-0.5h-0.6v0.6v0.6v0.5v0.6v0.6v0.6v0.6v0.6v0.5v0.6v0.6v0.6v0.6v0.5v0.6v0.6
				v0.6v0.6v0.6v0.5v0.6v0.6h0.6h0.6h0.6h0.6h0.5h0.6h0.6h0.6h0.6h0.6h0.6h0.6h0.5h0.6h0.6h0.6h0.5V239.2z"/>
		</g>
	</g>
</g>
</svg>
